  0
SECTION
  2
HEADER
  9
$ACADVER
  1
AC1024
  9
$ACADMAINTVER
 70
6
  9
$DWGCODEPAGE
  3
ANSI_1252
  9
$LASTSAVEDBY
  1
ezdxf
  9
$INSBASE
 10
0.0
 20
0.0
 30
0.0
  9
$EXTMIN
 10
1e+20
 20
1e+20
 30
1e+20
  9
$EXTMAX
 10
-1e+20
 20
-1e+20
 30
-1e+20
  9
$LIMMIN
 10
0.0
 20
0.0
  9
$LIMMAX
 10
420.0
 20
297.0
  9
$ORTHOMODE
 70
0
  9
$REGENMODE
 70
1
  9
$FILLMODE
 70
1
  9
$QTEXTMODE
 70
0
  9
$MIRRTEXT
 70
1
  9
$LTSCALE
 40
1.0
  9
$ATTMODE
 70
1
  9
$TEXTSIZE
 40
2.5
  9
$TRACEWID
 40
1.0
  9
$TEXTSTYLE
  7
Standard
  9
$CLAYER
  8
0
  9
$CELTYPE
  6
ByLayer
  9
$CECOLOR
 62
256
  9
$CELTSCALE
 40
1.0
  9
$DISPSILH
 70
0
  9
$DIMSCALE
 40
1.0
  9
$DIMASZ
 40
2.5
  9
$DIMEXO
 40
0.625
  9
$DIMDLI
 40
3.75
  9
$DIMRND
 40
0.0
  9
$DIMDLE
 40
0.0
  9
$DIMEXE
 40
1.25
  9
$DIMTP
 40
0.0
  9
$DIMTM
 40
0.0
  9
$DIMTXT
 40
2.5
  9
$DIMCEN
 40
2.5
  9
$DIMTSZ
 40
0.0
  9
$DIMTOL
 70
0
  9
$DIMLIM
 70
0
  9
$DIMTIH
 70
0
  9
$DIMTOH
 70
0
  9
$DIMSE1
 70
0
  9
$DIMSE2
 70
0
  9
$DIMTAD
 70
1
  9
$DIMZIN
 70
8
  9
$DIMBLK
  1

  9
$DIMASO
 70
1
  9
$DIMSHO
 70
1
  9
$DIMPOST
  1

  9
$DIMAPOST
  1

  9
$DIMALT
 70
0
  9
$DIMALTD
 70
3
  9
$DIMALTF
 40
0.03937007874
  9
$DIMLFAC
 40
1.0
  9
$DIMTOFL
 70
1
  9
$DIMTVP
 40
0.0
  9
$DIMTIX
 70
0
  9
$DIMSOXD
 70
0
  9
$DIMSAH
 70
0
  9
$DIMBLK1
  1

  9
$DIMBLK2
  1

  9
$DIMSTYLE
  2
ISO-25
  9
$DIMCLRD
 70
0
  9
$DIMCLRE
 70
0
  9
$DIMCLRT
 70
0
  9
$DIMTFAC
 40
1.0
  9
$DIMGAP
 40
0.625
  9
$DIMJUST
 70
0
  9
$DIMSD1
 70
0
  9
$DIMSD2
 70
0
  9
$DIMTOLJ
 70
0
  9
$DIMTZIN
 70
8
  9
$DIMALTZ
 70
0
  9
$DIMALTTZ
 70
0
  9
$DIMUPT
 70
0
  9
$DIMDEC
 70
2
  9
$DIMTDEC
 70
2
  9
$DIMALTU
 70
2
  9
$DIMALTTD
 70
3
  9
$DIMTXSTY
  7
Standard
  9
$DIMAUNIT
 70
0
  9
$DIMADEC
 70
0
  9
$DIMALTRND
 40
0.0
  9
$DIMAZIN
 70
0
  9
$DIMDSEP
 70
44
  9
$DIMATFIT
 70
3
  9
$DIMFRAC
 70
0
  9
$DIMLDRBLK
  1

  9
$DIMLUNIT
 70
2
  9
$DIMLWD
 70
-2
  9
$DIMLWE
 70
-2
  9
$DIMTMOVE
 70
0
  9
$DIMFXL
 40
1.0
  9
$DIMFXLON
 70
0
  9
$DIMJOGANG
 40
0.785398163397
  9
$DIMTFILL
 70
0
  9
$DIMTFILLCLR
 70
0
  9
$DIMARCSYM
 70
0
  9
$DIMLTYPE
  6

  9
$DIMLTEX1
  6

  9
$DIMLTEX2
  6

  9
$DIMTXTDIRECTION
 70
0
  9
$LUNITS
 70
2
  9
$LUPREC
 70
4
  9
$SKETCHINC
 40
1.0
  9
$FILLETRAD
 40
10.0
  9
$AUNITS
 70
0
  9
$AUPREC
 70
2
  9
$MENU
  1
.
  9
$ELEVATION
 40
0.0
  9
$PELEVATION
 40
0.0
  9
$THICKNESS
 40
0.0
  9
$LIMCHECK
 70
0
  9
$CHAMFERA
 40
0.0
  9
$CHAMFERB
 40
0.0
  9
$CHAMFERC
 40
0.0
  9
$CHAMFERD
 40
0.0
  9
$SKPOLY
 70
0
  9
$TDCREATE
 40
2459568.781412037
  9
$TDUCREATE
 40
2458532.153996898
  9
$TDUPDATE
 40
2459568.781423611
  9
$TDUUPDATE
 40
2458532.1544311
  9
$TDINDWG
 40
0.0
  9
$TDUSRTIMER
 40
0.0
  9
$USRTIMER
 70
1
  9
$ANGBASE
 50
0.0
  9
$ANGDIR
 70
0
  9
$PDMODE
 70
0
  9
$PDSIZE
 40
0.0
  9
$PLINEWID
 40
0.0
  9
$SPLFRAME
 70
0
  9
$SPLINETYPE
 70
6
  9
$SPLINESEGS
 70
8
  9
$HANDSEED
  5
9E
  9
$SURFTAB1
 70
6
  9
$SURFTAB2
 70
6
  9
$SURFTYPE
 70
6
  9
$SURFU
 70
6
  9
$SURFV
 70
6
  9
$UCSBASE
  2

  9
$UCSNAME
  2

  9
$UCSORG
 10
0.0
 20
0.0
 30
0.0
  9
$UCSXDIR
 10
1.0
 20
0.0
 30
0.0
  9
$UCSYDIR
 10
0.0
 20
1.0
 30
0.0
  9
$UCSORTHOREF
  2

  9
$UCSORTHOVIEW
 70
0
  9
$UCSORGTOP
 10
0.0
 20
0.0
 30
0.0
  9
$UCSORGBOTTOM
 10
0.0
 20
0.0
 30
0.0
  9
$UCSORGLEFT
 10
0.0
 20
0.0
 30
0.0
  9
$UCSORGRIGHT
 10
0.0
 20
0.0
 30
0.0
  9
$UCSORGFRONT
 10
0.0
 20
0.0
 30
0.0
  9
$UCSORGBACK
 10
0.0
 20
0.0
 30
0.0
  9
$PUCSBASE
  2

  9
$PUCSNAME
  2

  9
$PUCSORG
 10
0.0
 20
0.0
 30
0.0
  9
$PUCSXDIR
 10
1.0
 20
0.0
 30
0.0
  9
$PUCSYDIR
 10
0.0
 20
1.0
 30
0.0
  9
$PUCSORTHOREF
  2

  9
$PUCSORTHOVIEW
 70
0
  9
$PUCSORGTOP
 10
0.0
 20
0.0
 30
0.0
  9
$PUCSORGBOTTOM
 10
0.0
 20
0.0
 30
0.0
  9
$PUCSORGLEFT
 10
0.0
 20
0.0
 30
0.0
  9
$PUCSORGRIGHT
 10
0.0
 20
0.0
 30
0.0
  9
$PUCSORGFRONT
 10
0.0
 20
0.0
 30
0.0
  9
$PUCSORGBACK
 10
0.0
 20
0.0
 30
0.0
  9
$USERI1
 70
0
  9
$USERI2
 70
0
  9
$USERI3
 70
0
  9
$USERI4
 70
0
  9
$USERI5
 70
0
  9
$USERR1
 40
0.0
  9
$USERR2
 40
0.0
  9
$USERR3
 40
0.0
  9
$USERR4
 40
0.0
  9
$USERR5
 40
0.0
  9
$WORLDVIEW
 70
1
  9
$SHADEDGE
 70
3
  9
$SHADEDIF
 70
70
  9
$TILEMODE
 70
1
  9
$MAXACTVP
 70
64
  9
$PINSBASE
 10
0.0
 20
0.0
 30
0.0
  9
$PLIMCHECK
 70
0
  9
$PEXTMIN
 10
1e+20
 20
1e+20
 30
1e+20
  9
$PEXTMAX
 10
-1e+20
 20
-1e+20
 30
-1e+20
  9
$PLIMMIN
 10
0.0
 20
0.0
  9
$PLIMMAX
 10
420.0
 20
297.0
  9
$UNITMODE
 70
0
  9
$VISRETAIN
 70
1
  9
$PLINEGEN
 70
0
  9
$PSLTSCALE
 70
1
  9
$TREEDEPTH
 70
3020
  9
$CMLSTYLE
  2
Standard
  9
$CMLJUST
 70
0
  9
$CMLSCALE
 40
20.0
  9
$PROXYGRAPHICS
 70
1
  9
$MEASUREMENT
 70
1
  9
$CELWEIGHT
370
-1
  9
$ENDCAPS
280
0
  9
$JOINSTYLE
280
0
  9
$LWDISPLAY
290
0
  9
$INSUNITS
 70
6
  9
$HYPERLINKBASE
  1

  9
$STYLESHEET
  1

  9
$XEDIT
290
1
  9
$CEPSNTYPE
380
0
  9
$PSTYLEMODE
290
1
  9
$FINGERPRINTGUID
  2
{3D9244B5-3902-408E-8C11-59F6268D707C}
  9
$VERSIONGUID
  2
{89EABBA0-339B-4BE4-B809-80E6882562DE}
  9
$EXTNAMES
290
1
  9
$PSVPSCALE
 40
0.0
  9
$OLESTARTUP
290
0
  9
$SORTENTS
280
127
  9
$INDEXCTL
280
0
  9
$HIDETEXT
280
1
  9
$XCLIPFRAME
280
0
  9
$HALOGAP
280
0
  9
$OBSCOLOR
 70
257
  9
$OBSLTYPE
280
0
  9
$INTERSECTIONDISPLAY
280
0
  9
$INTERSECTIONCOLOR
 70
257
  9
$DIMASSOC
280
2
  9
$PROJECTNAME
  1

  9
$CAMERADISPLAY
290
0
  9
$LENSLENGTH
 40
50.0
  9
$CAMERAHEIGHT
 40
0.0
  9
$STEPSPERSEC
 40
24.0
  9
$STEPSIZE
 40
100.0
  9
$3DDWFPREC
 40
2.0
  9
$PSOLWIDTH
 40
0.005
  9
$PSOLHEIGHT
 40
0.08
  9
$LOFTANG1
 40
1.570796326795
  9
$LOFTANG2
 40
1.570796326795
  9
$LOFTMAG1
 40
0.0
  9
$LOFTMAG2
 40
0.0
  9
$LOFTPARAM
 70
7
  9
$LOFTNORMALS
280
1
  9
$LATITUDE
 40
37.795
  9
$LONGITUDE
 40
-122.394
  9
$NORTHDIRECTION
 40
0.0
  9
$TIMEZONE
 70
-8000
  9
$LIGHTGLYPHDISPLAY
280
1
  9
$TILEMODELIGHTSYNCH
280
1
  9
$CMATERIAL
347
20
  9
$SOLIDHIST
280
0
  9
$SHOWHIST
280
1
  9
$DWFFRAME
280
2
  9
$DGNFRAME
280
2
  9
$REALWORLDSCALE
290
1
  9
$INTERFERECOLOR
 62
256
  9
$CSHADOW
280
0
  9
$SHADOWPLANELOCATION
 40
0.0
  0
ENDSEC
  0
SECTION
  2
CLASSES
  0
CLASS
  1
ACDBDICTIONARYWDFLT
  2
AcDbDictionaryWithDefault
  3
ObjectDBX Classes
 90
0
 91
0
280
0
281
0
  0
CLASS
  1
SUN
  2
AcDbSun
  3
SCENEOE
 90
1153
 91
0
280
0
281
0
  0
CLASS
  1
VISUALSTYLE
  2
AcDbVisualStyle
  3
ObjectDBX Classes
 90
4095
 91
0
280
0
281
0
  0
CLASS
  1
MATERIAL
  2
AcDbMaterial
  3
ObjectDBX Classes
 90
1153
 91
0
280
0
281
0
  0
CLASS
  1
SCALE
  2
AcDbScale
  3
ObjectDBX Classes
 90
1153
 91
0
280
0
281
0
  0
CLASS
  1
TABLESTYLE
  2
AcDbTableStyle
  3
ObjectDBX Classes
 90
4095
 91
0
280
0
281
0
  0
CLASS
  1
MLEADERSTYLE
  2
AcDbMLeaderStyle
  3
ACDB_MLEADERSTYLE_CLASS
 90
4095
 91
0
280
0
281
0
  0
CLASS
  1
DICTIONARYVAR
  2
AcDbDictionaryVar
  3
ObjectDBX Classes
 90
0
 91
0
280
0
281
0
  0
CLASS
  1
CELLSTYLEMAP
  2
AcDbCellStyleMap
  3
ObjectDBX Classes
 90
1152
 91
0
280
0
281
0
  0
CLASS
  1
MENTALRAYRENDERSETTINGS
  2
AcDbMentalRayRenderSettings
  3
SCENEOE
 90
1024
 91
0
280
0
281
0
  0
CLASS
  1
ACDBDETAILVIEWSTYLE
  2
AcDbDetailViewStyle
  3
ObjectDBX Classes
 90
1025
 91
0
280
0
281
0
  0
CLASS
  1
ACDBSECTIONVIEWSTYLE
  2
AcDbSectionViewStyle
  3
ObjectDBX Classes
 90
1025
 91
0
280
0
281
0
  0
CLASS
  1
RASTERVARIABLES
  2
AcDbRasterVariables
  3
ISM
 90
0
 91
0
280
0
281
0
  0
CLASS
  1
ACDBPLACEHOLDER
  2
AcDbPlaceHolder
  3
ObjectDBX Classes
 90
0
 91
0
280
0
281
0
  0
CLASS
  1
LAYOUT
  2
AcDbLayout
  3
ObjectDBX Classes
 90
0
 91
0
280
0
281
0
  0
ENDSEC
  0
SECTION
  2
TABLES
  0
TABLE
  2
VPORT
  5
8
330
0
100
AcDbSymbolTable
 70
1
  0
VPORT
  5
23
330
8
100
AcDbSymbolTableRecord
100
AcDbViewportTableRecord
  2
*Active
 70
0
 10
0.0
 20
0.0
 11
1.0
 21
1.0
 12
344.2
 22
148.5
 13
0.0
 23
0.0
 14
0.5
 24
0.5
 15
0.5
 25
0.5
 16
0.0
 26
0.0
 36
1.0
 17
0.0
 27
0.0
 37
0.0
 40
297.0
 41
1.34
 42
50.0
 43
0.0
 44
0.0
 50
0.0
 51
0.0
 71
0
 72
1000
 73
1
 74
3
 75
0
 76
0
 77
0
 78
0
281
0
 65
0
146
0.0
  0
ENDTAB
  0
TABLE
  2
LTYPE
  5
2
330
0
100
AcDbSymbolTable
 70
3
  0
LTYPE
  5
24
330
2
100
AcDbSymbolTableRecord
100
AcDbLinetypeTableRecord
  2
ByBlock
 70
0
  3

 72
65
 73
0
 40
0.0
  0
LTYPE
  5
25
330
2
100
AcDbSymbolTableRecord
100
AcDbLinetypeTableRecord
  2
ByLayer
 70
0
  3

 72
65
 73
0
 40
0.0
  0
LTYPE
  5
26
330
2
100
AcDbSymbolTableRecord
100
AcDbLinetypeTableRecord
  2
Continuous
 70
0
  3

 72
65
 73
0
 40
0.0
  0
ENDTAB
  0
TABLE
  2
LAYER
  5
1
330
0
100
AcDbSymbolTable
 70
2
  0
LAYER
  5
27
330
1
100
AcDbSymbolTableRecord
100
AcDbLayerTableRecord
  2
0
 70
0
 62
7
  6
Continuous
370
-3
390
13
347
21
  0
LAYER
  5
28
330
1
100
AcDbSymbolTableRecord
100
AcDbLayerTableRecord
  2
Defpoints
 70
0
 62
7
  6
Continuous
290
0
370
-3
390
13
347
21
  0
ENDTAB
  0
TABLE
  2
STYLE
  5
5
330
0
100
AcDbSymbolTable
 70
1
  0
STYLE
  5
29
330
5
100
AcDbSymbolTableRecord
100
AcDbTextStyleTableRecord
  2
Standard
 70
0
 40
0.0
 41
1.0
 50
0.0
 71
0
 42
2.5
  3
txt
  4

  0
ENDTAB
  0
TABLE
  2
VIEW
  5
7
330
0
100
AcDbSymbolTable
 70
0
  0
ENDTAB
  0
TABLE
  2
UCS
  5
6
330
0
100
AcDbSymbolTable
 70
0
  0
ENDTAB
  0
TABLE
  2
APPID
  5
3
330
0
100
AcDbSymbolTable
 70
3
  0
APPID
  5
2A
330
3
100
AcDbSymbolTableRecord
100
AcDbRegAppTableRecord
  2
ACAD
 70
0
  0
APPID
  5
9B
330
3
100
AcDbSymbolTableRecord
100
AcDbRegAppTableRecord
  2
HATCHBACKGROUNDCOLOR
 70
0
  0
APPID
  5
9C
330
3
100
AcDbSymbolTableRecord
100
AcDbRegAppTableRecord
  2
EZDXF
 70
0
  0
ENDTAB
  0
TABLE
  2
DIMSTYLE
  5
4
330
0
100
AcDbSymbolTable
 70
1
100
AcDbDimStyleTable
  0
DIMSTYLE
105
2B
330
4
100
AcDbSymbolTableRecord
100
AcDbDimStyleTableRecord
  2
Standard
 70
0
 40
1.0
 41
2.5
 42
0.625
 43
3.75
 44
1.25
 45
0.0
 46
0.0
 47
0.0
 48
0.0
 49
2.5
140
2.5
141
2.5
142
0.0
143
0.03937007874
144
1.0
145
0.0
146
1.0
147
0.625
148
0.0
 69
0
 70
0
 71
0
 72
0
 73
0
 74
0
 75
0
 76
0
 77
1
 78
8
 79
3
170
0
171
3
172
1
173
0
174
0
175
0
176
0
177
0
178
0
179
2
271
2
272
2
273
2
274
3
275
0
276
0
277
2
278
44
279
0
280
0
281
0
282
0
283
0
284
8
285
0
286
0
288
0
289
3
290
0
371
-2
372
-2
  0
ENDTAB
  0
TABLE
  2
BLOCK_RECORD
  5
9
330
0
100
AcDbSymbolTable
 70
2
  0
BLOCK_RECORD
  5
17
330
9
100
AcDbSymbolTableRecord
100
AcDbBlockTableRecord
  2
*Model_Space
340
1A
 70
0
280
1
281
0
  0
BLOCK_RECORD
  5
1B
330
9
100
AcDbSymbolTableRecord
100
AcDbBlockTableRecord
  2
*Paper_Space
340
1E
 70
0
280
1
281
0
  0
ENDTAB
  0
ENDSEC
  0
SECTION
  2
BLOCKS
  0
BLOCK
  5
18
330
17
100
AcDbEntity
  8
0
100
AcDbBlockBegin
  2
*Model_Space
 70
0
 10
0.0
 20
0.0
 30
0.0
  3
*Model_Space
  1

  0
ENDBLK
  5
19
330
17
100
AcDbEntity
  8
0
100
AcDbBlockEnd
  0
BLOCK
  5
1C
330
1B
100
AcDbEntity
  8
0
100
AcDbBlockBegin
  2
*Paper_Space
 70
0
 10
0.0
 20
0.0
 30
0.0
  3
*Paper_Space
  1

  0
ENDBLK
  5
1D
330
1B
100
AcDbEntity
  8
0
100
AcDbBlockEnd
  0
ENDSEC
  0
SECTION
  2
ENTITIES
  0
LINE
  5
2F
330
17
100
AcDbEntity
  8
0
  6
Continuous
 62
7
370
25
100
AcDbLine
 10
0.0
 20
2.7112946221999996
 30
0.0
 11
0.0
 21
0.25
 31
0.0
  0
LINE
  5
30
330
17
100
AcDbEntity
  8
0
  6
Continuous
 62
7
370
25
100
AcDbLine
 10
0.0
 20
0.25
 30
0.0
 11
1.1360193672
 21
0.25
 31
0.0
  0
LINE
  5
31
330
17
100
AcDbEntity
  8
0
  6
Continuous
 62
7
370
25
100
AcDbLine
 10
1.1360193672
 20
0.25
 30
0.0
 11
1.1360193672
 21
2.7112946221999996
 31
0.0
  0
LINE
  5
32
330
17
100
AcDbEntity
  8
0
  6
Continuous
 62
7
370
25
100
AcDbLine
 10
1.1360193672
 20
2.7112946221999996
 30
0.0
 11
0.7659966775
 21
2.7112946221999996
 31
0.0
  0
LINE
  5
33
330
17
100
AcDbEntity
  8
0
  6
Continuous
 62
7
370
25
100
AcDbLine
 10
0.7659966775
 20
2.7112946221999996
 30
0.0
 11
0.7659966775
 21
4.7848088747999995
 31
0.0
  0
LINE
  5
34
330
17
100
AcDbEntity
  8
0
  6
Continuous
 62
7
370
25
100
AcDbLine
 10
0.7659966775
 20
4.7848088747999995
 30
0.0
 11
0.3000106431
 21
4.7848088747999995
 31
0.0
  0
LINE
  5
35
330
17
100
AcDbEntity
  8
0
  6
Continuous
 62
7
370
25
100
AcDbLine
 10
0.3000106431
 20
4.7848088747999995
 30
0.0
 11
0.3000106431
 21
2.7112946221999996
 31
0.0
  0
LINE
  5
36
330
17
100
AcDbEntity
  8
0
  6
Continuous
 62
7
370
25
100
AcDbLine
 10
0.3000106431
 20
2.7112946221999996
 30
0.0
 11
0.0
 21
2.7112946221999996
 31
0.0
  0
LINE
  5
37
330
17
100
AcDbEntity
  8
0
  6
Continuous
 62
7
370
25
100
AcDbLine
 10
1.3860193671999999
 20
3.2389106384999997
 30
0.0
 11
2.0232946084
 21
3.2389106384999997
 31
0.0
  0
LINE
  5
38
330
17
100
AcDbEntity
  8
0
  6
Continuous
 62
7
370
25
100
AcDbLine
 10
2.0232946084
 20
3.2389106384999997
 30
0.0
 11
2.0232946084
 21
0.25
 31
0.0
  0
LINE
  5
39
330
17
100
AcDbEntity
  8
0
  6
Continuous
 62
7
370
25
100
AcDbLine
 10
2.0232946084
 20
0.25
 30
0.0
 11
2.5438856506
 21
0.25
 31
0.0
  0
LINE
  5
3A
330
17
100
AcDbEntity
  8
0
  6
Continuous
 62
7
370
25
100
AcDbLine
 10
2.5438856506
 20
0.25
 30
0.0
 11
2.5438856506
 21
3.2389106384999997
 31
0.0
  0
LINE
  5
3B
330
17
100
AcDbEntity
  8
0
  6
Continuous
 62
7
370
25
100
AcDbLine
 10
2.5438856506
 20
3.2389106384999997
 30
0.0
 11
3.1093552309
 21
3.2389106384999997
 31
0.0
  0
LINE
  5
3C
330
17
100
AcDbEntity
  8
0
  6
Continuous
 62
7
370
25
100
AcDbLine
 10
3.1093552309
 20
3.2389106384999997
 30
0.0
 11
3.1093552309
 21
4.019797201699999
 31
0.0
  0
LINE
  5
3D
330
17
100
AcDbEntity
  8
0
  6
Continuous
 62
7
370
25
100
AcDbLine
 10
3.1093552309
 20
4.019797201699999
 30
0.0
 11
1.3860193671999999
 21
4.019797201699999
 31
0.0
  0
LINE
  5
3E
330
17
100
AcDbEntity
  8
0
  6
Continuous
 62
7
370
25
100
AcDbLine
 10
1.3860193671999999
 20
4.019797201699999
 30
0.0
 11
1.3860193671999999
 21
3.2389106384999997
 31
0.0
  0
LINE
  5
3F
330
17
100
AcDbEntity
  8
0
  6
Continuous
 62
7
370
25
100
AcDbLine
 10
3.3593552309
 20
3.2389106384999997
 30
0.0
 11
3.9966304721
 21
3.2389106384999997
 31
0.0
  0
LINE
  5
40
330
17
100
AcDbEntity
  8
0
  6
Continuous
 62
7
370
25
100
AcDbLine
 10
3.9966304721
 20
3.2389106384999997
 30
0.0
 11
3.9966304721
 21
0.25
 31
0.0
  0
LINE
  5
41
330
17
100
AcDbEntity
  8
0
  6
Continuous
 62
7
370
25
100
AcDbLine
 10
3.9966304721
 20
0.25
 30
0.0
 11
4.5172215143
 21
0.25
 31
0.0
  0
LINE
  5
42
330
17
100
AcDbEntity
  8
0
  6
Continuous
 62
7
370
25
100
AcDbLine
 10
4.5172215143
 20
0.25
 30
0.0
 11
4.5172215143
 21
3.2389106384999997
 31
0.0
  0
LINE
  5
43
330
17
100
AcDbEntity
  8
0
  6
Continuous
 62
7
370
25
100
AcDbLine
 10
4.5172215143
 20
3.2389106384999997
 30
0.0
 11
5.0826910945999995
 21
3.2389106384999997
 31
0.0
  0
LINE
  5
44
330
17
100
AcDbEntity
  8
0
  6
Continuous
 62
7
370
25
100
AcDbLine
 10
5.0826910945999995
 20
3.2389106384999997
 30
0.0
 11
5.0826910945999995
 21
4.019797201699999
 31
0.0
  0
LINE
  5
45
330
17
100
AcDbEntity
  8
0
  6
Continuous
 62
7
370
25
100
AcDbLine
 10
5.0826910945999995
 20
4.019797201699999
 30
0.0
 11
3.3593552309
 21
4.019797201699999
 31
0.0
  0
LINE
  5
46
330
17
100
AcDbEntity
  8
0
  6
Continuous
 62
7
370
25
100
AcDbLine
 10
3.3593552309
 20
4.019797201699999
 30
0.0
 11
3.3593552309
 21
3.2389106384999997
 31
0.0
  0
LINE
  5
47
330
17
100
AcDbEntity
  8
0
  6
Continuous
 62
7
370
25
100
AcDbLine
 10
5.3326910945999995
 20
3.2389106384999997
 30
0.0
 11
5.969966335800001
 21
3.2389106384999997
 31
0.0
  0
LINE
  5
48
330
17
100
AcDbEntity
  8
0
  6
Continuous
 62
7
370
25
100
AcDbLine
 10
5.969966335800001
 20
3.2389106384999997
 30
0.0
 11
5.969966335800001
 21
0.25
 31
0.0
  0
LINE
  5
49
330
17
100
AcDbEntity
  8
0
  6
Continuous
 62
7
370
25
100
AcDbLine
 10
5.969966335800001
 20
0.25
 30
0.0
 11
6.490557378
 21
0.25
 31
0.0
  0
LINE
  5
4A
330
17
100
AcDbEntity
  8
0
  6
Continuous
 62
7
370
25
100
AcDbLine
 10
6.490557378
 20
0.25
 30
0.0
 11
6.490557378
 21
3.2389106384999997
 31
0.0
  0
LINE
  5
4B
330
17
100
AcDbEntity
  8
0
  6
Continuous
 62
7
370
25
100
AcDbLine
 10
6.490557378
 20
3.2389106384999997
 30
0.0
 11
7.0560269583
 21
3.2389106384999997
 31
0.0
  0
LINE
  5
4C
330
17
100
AcDbEntity
  8
0
  6
Continuous
 62
7
370
25
100
AcDbLine
 10
7.0560269583
 20
3.2389106384999997
 30
0.0
 11
7.0560269583
 21
4.019797201699999
 31
0.0
  0
LINE
  5
4D
330
17
100
AcDbEntity
  8
0
  6
Continuous
 62
7
370
25
100
AcDbLine
 10
7.0560269583
 20
4.019797201699999
 30
0.0
 11
5.3326910945999995
 21
4.019797201699999
 31
0.0
  0
LINE
  5
4E
330
17
100
AcDbEntity
  8
0
  6
Continuous
 62
7
370
25
100
AcDbLine
 10
5.3326910945999995
 20
4.019797201699999
 30
0.0
 11
5.3326910945999995
 21
3.2389106384999997
 31
0.0
  0
LINE
  5
4F
330
17
100
AcDbEntity
  8
0
  6
Continuous
 62
7
370
25
100
AcDbLine
 10
7.3060269583
 20
3.2389106384999997
 30
0.0
 11
7.9433021995000015
 21
3.2389106384999997
 31
0.0
  0
LINE
  5
50
330
17
100
AcDbEntity
  8
0
  6
Continuous
 62
7
370
25
100
AcDbLine
 10
7.9433021995000015
 20
3.2389106384999997
 30
0.0
 11
7.9433021995000015
 21
0.25
 31
0.0
  0
LINE
  5
51
330
17
100
AcDbEntity
  8
0
  6
Continuous
 62
7
370
25
100
AcDbLine
 10
7.9433021995000015
 20
0.25
 30
0.0
 11
8.463893241700001
 21
0.25
 31
0.0
  0
LINE
  5
52
330
17
100
AcDbEntity
  8
0
  6
Continuous
 62
7
370
25
100
AcDbLine
 10
8.463893241700001
 20
0.25
 30
0.0
 11
8.463893241700001
 21
3.2389106384999997
 31
0.0
  0
LINE
  5
53
330
17
100
AcDbEntity
  8
0
  6
Continuous
 62
7
370
25
100
AcDbLine
 10
8.463893241700001
 20
3.2389106384999997
 30
0.0
 11
9.029362822000001
 21
3.2389106384999997
 31
0.0
  0
LINE
  5
54
330
17
100
AcDbEntity
  8
0
  6
Continuous
 62
7
370
25
100
AcDbLine
 10
9.029362822000001
 20
3.2389106384999997
 30
0.0
 11
9.029362822000001
 21
4.019797201699999
 31
0.0
  0
LINE
  5
55
330
17
100
AcDbEntity
  8
0
  6
Continuous
 62
7
370
25
100
AcDbLine
 10
9.029362822000001
 20
4.019797201699999
 30
0.0
 11
7.3060269583
 21
4.019797201699999
 31
0.0
  0
LINE
  5
56
330
17
100
AcDbEntity
  8
0
  6
Continuous
 62
7
370
25
100
AcDbLine
 10
7.3060269583
 20
4.019797201699999
 30
0.0
 11
7.3060269583
 21
3.2389106384999997
 31
0.0
  0
LINE
  5
57
330
17
100
AcDbEntity
  8
0
  6
Continuous
 62
7
370
25
100
AcDbLine
 10
9.279362822000001
 20
3.2389106384999997
 30
0.0
 11
9.916638063200002
 21
3.2389106384999997
 31
0.0
  0
LINE
  5
58
330
17
100
AcDbEntity
  8
0
  6
Continuous
 62
7
370
25
100
AcDbLine
 10
9.916638063200002
 20
3.2389106384999997
 30
0.0
 11
9.916638063200002
 21
0.25
 31
0.0
  0
LINE
  5
59
330
17
100
AcDbEntity
  8
0
  6
Continuous
 62
7
370
25
100
AcDbLine
 10
9.916638063200002
 20
0.25
 30
0.0
 11
10.437229105400002
 21
0.25
 31
0.0
  0
LINE
  5
5A
330
17
100
AcDbEntity
  8
0
  6
Continuous
 62
7
370
25
100
AcDbLine
 10
10.437229105400002
 20
0.25
 30
0.0
 11
10.437229105400002
 21
3.2389106384999997
 31
0.0
  0
LINE
  5
5B
330
17
100
AcDbEntity
  8
0
  6
Continuous
 62
7
370
25
100
AcDbLine
 10
10.437229105400002
 20
3.2389106384999997
 30
0.0
 11
11.002698685700002
 21
3.2389106384999997
 31
0.0
  0
LINE
  5
5C
330
17
100
AcDbEntity
  8
0
  6
Continuous
 62
7
370
25
100
AcDbLine
 10
11.002698685700002
 20
3.2389106384999997
 30
0.0
 11
11.002698685700002
 21
4.019797201699999
 31
0.0
  0
LINE
  5
5D
330
17
100
AcDbEntity
  8
0
  6
Continuous
 62
7
370
25
100
AcDbLine
 10
11.002698685700002
 20
4.019797201699999
 30
0.0
 11
9.279362822000001
 21
4.019797201699999
 31
0.0
  0
LINE
  5
5E
330
17
100
AcDbEntity
  8
0
  6
Continuous
 62
7
370
25
100
AcDbLine
 10
9.279362822000001
 20
4.019797201699999
 30
0.0
 11
9.279362822000001
 21
3.2389106384999997
 31
0.0
  0
SPLINE
  5
5F
330
17
100
AcDbEntity
  8
0
  6
Continuous
 62
7
370
25
100
AcDbSpline
 70
8
 71
3
 72
15
 73
11
 74
0
 42
1e-09
 43
0.001
 40
0.0
 40
0.0
 40
0.0
 40
0.0
 40
0.1903008812880466
 40
0.2542314365168828
 40
0.3181619917457191
 40
0.4921591957196382
 40
0.6661563996935571
 40
0.7321225925218806
 40
0.7980887853502038
 40
1.0
 40
1.0
 40
1.0
 40
1.0
 10
11.684203070572996
 20
0.29075890474130617
 30
0.0
 10
11.716246949493101
 20
0.34608554980800577
 30
0.0
 10
11.743624662628141
 20
0.42666370756350247
 30
0.0
 10
11.741586347936178
 20
0.5359770712300609
 30
0.0
 10
11.672382304164483
 20
0.6203357093125312
 30
0.0
 10
11.516408877469999
 20
0.6026292985392665
 30
0.0
 10
11.385123694508028
 20
0.5379623146562018
 30
0.0
 10
11.349190381644021
 20
0.43555584002033143
 30
0.0
 10
11.387078043306722
 20
0.3248599717689409
 30
0.0
 10
11.474156322303093
 20
0.277793738264581
 30
0.0
 10
11.532088767220387
 20
0.25000000000075673
 30
0.0
  0
SPLINE
  5
60
330
17
100
AcDbEntity
  8
0
  6
Continuous
 62
7
370
25
100
AcDbSpline
 70
8
 71
3
 72
15
 73
11
 74
0
 42
1e-09
 43
0.001
 40
0.0
 40
0.0
 40
0.0
 40
0.0
 40
0.1903008812880466
 40
0.2542314365168828
 40
0.3181619917457191
 40
0.4921591957196382
 40
0.6661563996935571
 40
0.7321225925218806
 40
0.7980887853502038
 40
1.0
 40
1.0
 40
1.0
 40
1.0
 10
11.318704781031693
 20
3.7423584556892244
 30
0.0
 10
11.278649932381564
 20
3.6732001493558535
 30
0.0
 10
11.244427790962762
 20
3.5724774521614755
 30
0.0
 10
11.246975684327715
 20
3.4358357475782704
 30
0.0
 10
11.333480739042333
 20
3.3303874499751807
 30
0.0
 10
11.528447522410438
 20
3.35252046344176
 30
0.0
 10
11.692554001112903
 20
3.433354193295603
 30
0.0
 10
11.737470642192912
 20
3.561362286590441
 30
0.0
 10
11.69011106511454
 20
3.6997321219046704
 30
0.0
 10
11.581263216369074
 20
3.7585649137851256
 30
0.0
 10
11.508847660222456
 20
3.79330708661492
 30
0.0
  0
LINE
  5
61
330
17
100
AcDbEntity
  8
0
  6
Continuous
 62
7
370
25
100
AcDbLine
 10
11.532088767221364
 20
0.24999999999999645
 30
0.0
 11
11.489873262993017
 21
0.4075504066495945
 31
0.0
  0
LINE
  5
62
330
17
100
AcDbEntity
  8
0
  6
Continuous
 62
7
370
25
100
AcDbLine
 10
11.64198756634341
 20
0.44830931138975316
 30
0.0
 11
11.684203070571757
 21
0.2907589047401409
 31
0.0
  0
LINE
  5
63
330
17
100
AcDbEntity
  8
0
  6
Continuous
 62
7
370
25
100
AcDbLine
 10
11.371474161319789
 20
3.5454204473779463
 30
0.0
 11
11.318704781032388
 21
3.7423584556889757
 31
0.0
  0
LINE
  5
64
330
17
100
AcDbEntity
  8
0
  6
Continuous
 62
7
370
25
100
AcDbLine
 10
11.508847660221363
 20
3.79330708661416
 30
0.0
 11
11.561617040508764
 21
3.5963690783031304
 31
0.0
  0
LINE
  5
65
330
17
100
AcDbEntity
  8
0
  6
Continuous
 62
7
370
25
100
AcDbLine
 10
11.610342063496955
 20
0.6074809746102225
 30
0.0
 11
11.610342063496955
 21
3.3990922136771538
 31
0.0
  0
LINE
  5
66
330
17
100
AcDbEntity
  8
0
  6
Continuous
 62
7
370
25
100
AcDbLine
 10
11.433176709166245
 20
0.5551632828858111
 30
0.0
 11
11.433176709166245
 21
3.3475174538582557
 31
0.0
  0
ARC
  5
67
330
17
100
AcDbEntity
  8
0
  6
Continuous
 62
7
370
25
100
AcDbCircle
 10
11.584337689103252
 20
0.35923297559841316
 30
0.0
 40
0.1061042032348301
100
AcDbArc
 50
57.0892041846
 51
152.9107958154
  0
ARC
  5
68
330
17
100
AcDbEntity
  8
0
  6
Continuous
 62
7
370
25
100
AcDbCircle
 10
11.443536507867032
 20
3.6567658671181
 30
0.0
 40
0.1326302540435391
100
AcDbArc
 50
-122.91079581540005
 51
-27.089204184600025
  0
SPLINE
  5
69
330
17
100
AcDbEntity
  8
0
  6
Continuous
 62
7
370
25
100
AcDbSpline
 70
8
 71
3
 72
15
 73
11
 74
0
 42
1e-09
 43
0.001
 40
0.0
 40
0.0
 40
0.0
 40
0.0
 40
0.1903008812880466
 40
0.2542314365168828
 40
0.3181619917457191
 40
0.4921591957196382
 40
0.6661563996935571
 40
0.7321225925218806
 40
0.7980887853502038
 40
1.0
 40
1.0
 40
1.0
 40
1.0
 10
12.41851233171134
 20
0.29075890474130617
 30
0.0
 10
12.450556210631445
 20
0.34608554980800577
 30
0.0
 10
12.477933923766486
 20
0.42666370756350247
 30
0.0
 10
12.475895609074524
 20
0.5359770712300609
 30
0.0
 10
12.406691565302829
 20
0.6203357093125312
 30
0.0
 10
12.250718138608343
 20
0.6026292985392665
 30
0.0
 10
12.119432955646372
 20
0.5379623146562018
 30
0.0
 10
12.083499642782366
 20
0.43555584002033143
 30
0.0
 10
12.121387304445065
 20
0.3248599717689409
 30
0.0
 10
12.208465583441438
 20
0.277793738264581
 30
0.0
 10
12.266398028358733
 20
0.25000000000075673
 30
0.0
  0
SPLINE
  5
6A
330
17
100
AcDbEntity
  8
0
  6
Continuous
 62
7
370
25
100
AcDbSpline
 70
8
 71
3
 72
15
 73
11
 74
0
 42
1e-09
 43
0.001
 40
0.0
 40
0.0
 40
0.0
 40
0.0
 40
0.1903008812880466
 40
0.2542314365168828
 40
0.3181619917457191
 40
0.4921591957196382
 40
0.6661563996935571
 40
0.7321225925218806
 40
0.7980887853502038
 40
1.0
 40
1.0
 40
1.0
 40
1.0
 10
12.053014042170037
 20
3.7423584556892244
 30
0.0
 10
12.012959193519908
 20
3.6732001493558535
 30
0.0
 10
11.978737052101106
 20
3.5724774521614755
 30
0.0
 10
11.98128494546606
 20
3.4358357475782704
 30
0.0
 10
12.067790000180677
 20
3.3303874499751807
 30
0.0
 10
12.262756783548783
 20
3.35252046344176
 30
0.0
 10
12.426863262251247
 20
3.433354193295603
 30
0.0
 10
12.471779903331257
 20
3.561362286590441
 30
0.0
 10
12.424420326252882
 20
3.6997321219046704
 30
0.0
 10
12.31557247750742
 20
3.7585649137851256
 30
0.0
 10
12.2431569213608
 20
3.79330708661492
 30
0.0
  0
LINE
  5
6B
330
17
100
AcDbEntity
  8
0
  6
Continuous
 62
7
370
25
100
AcDbLine
 10
12.266398028359708
 20
0.24999999999999645
 30
0.0
 11
12.224182524131361
 21
0.4075504066495945
 31
0.0
  0
LINE
  5
6C
330
17
100
AcDbEntity
  8
0
  6
Continuous
 62
7
370
25
100
AcDbLine
 10
12.376296827481756
 20
0.44830931138975316
 30
0.0
 11
12.418512331710101
 21
0.2907589047401409
 31
0.0
  0
LINE
  5
6D
330
17
100
AcDbEntity
  8
0
  6
Continuous
 62
7
370
25
100
AcDbLine
 10
12.105783422458133
 20
3.5454204473779463
 30
0.0
 11
12.05301404217073
 21
3.7423584556889757
 31
0.0
  0
LINE
  5
6E
330
17
100
AcDbEntity
  8
0
  6
Continuous
 62
7
370
25
100
AcDbLine
 10
12.243156921359708
 20
3.79330708661416
 30
0.0
 11
12.295926301647109
 21
3.5963690783031304
 31
0.0
  0
LINE
  5
6F
330
17
100
AcDbEntity
  8
0
  6
Continuous
 62
7
370
25
100
AcDbLine
 10
12.344651324635297
 20
0.6074809746102225
 30
0.0
 11
12.344651324635297
 21
3.3990922136771538
 31
0.0
  0
LINE
  5
70
330
17
100
AcDbEntity
  8
0
  6
Continuous
 62
7
370
25
100
AcDbLine
 10
12.16748597030459
 20
0.5551632828858111
 30
0.0
 11
12.16748597030459
 21
3.3475174538582557
 31
0.0
  0
ARC
  5
71
330
17
100
AcDbEntity
  8
0
  6
Continuous
 62
7
370
25
100
AcDbCircle
 10
12.318646950241597
 20
0.35923297559841316
 30
0.0
 40
0.1061042032348301
100
AcDbArc
 50
57.0892041846
 51
152.9107958154
  0
ARC
  5
72
330
17
100
AcDbEntity
  8
0
  6
Continuous
 62
7
370
25
100
AcDbCircle
 10
12.177845769005376
 20
3.6567658671181
 30
0.0
 40
0.1326302540435391
100
AcDbArc
 50
-122.91079581540005
 51
-27.089204184600025
  0
SPLINE
  5
73
330
17
100
AcDbEntity
  8
0
  6
Continuous
 62
7
370
25
100
AcDbSpline
 70
8
 71
3
 72
15
 73
11
 74
0
 42
1e-09
 43
0.001
 40
0.0
 40
0.0
 40
0.0
 40
0.0
 40
0.1903008812880466
 40
0.2542314365168828
 40
0.3181619917457191
 40
0.4921591957196382
 40
0.6661563996935571
 40
0.7321225925218806
 40
0.7980887853502038
 40
1.0
 40
1.0
 40
1.0
 40
1.0
 10
13.152821592849689
 20
0.29075890474130617
 30
0.0
 10
13.184865471769793
 20
0.34608554980800577
 30
0.0
 10
13.212243184904834
 20
0.42666370756350247
 30
0.0
 10
13.21020487021287
 20
0.5359770712300609
 30
0.0
 10
13.141000826441175
 20
0.6203357093125312
 30
0.0
 10
12.985027399746691
 20
0.6026292985392665
 30
0.0
 10
12.85374221678472
 20
0.5379623146562018
 30
0.0
 10
12.817808903920714
 20
0.43555584002033143
 30
0.0
 10
12.855696565583415
 20
0.3248599717689409
 30
0.0
 10
12.942774844579786
 20
0.277793738264581
 30
0.0
 10
13.000707289497079
 20
0.25000000000075673
 30
0.0
  0
SPLINE
  5
74
330
17
100
AcDbEntity
  8
0
  6
Continuous
 62
7
370
25
100
AcDbSpline
 70
8
 71
3
 72
15
 73
11
 74
0
 42
1e-09
 43
0.001
 40
0.0
 40
0.0
 40
0.0
 40
0.0
 40
0.1903008812880466
 40
0.2542314365168828
 40
0.3181619917457191
 40
0.4921591957196382
 40
0.6661563996935571
 40
0.7321225925218806
 40
0.7980887853502038
 40
1.0
 40
1.0
 40
1.0
 40
1.0
 10
12.787323303308385
 20
3.7423584556892244
 30
0.0
 10
12.747268454658256
 20
3.6732001493558535
 30
0.0
 10
12.713046313239454
 20
3.5724774521614755
 30
0.0
 10
12.715594206604408
 20
3.4358357475782704
 30
0.0
 10
12.802099261319025
 20
3.3303874499751807
 30
0.0
 10
12.99706604468713
 20
3.35252046344176
 30
0.0
 10
13.161172523389595
 20
3.433354193295603
 30
0.0
 10
13.206089164469605
 20
3.561362286590441
 30
0.0
 10
13.158729587391232
 20
3.6997321219046704
 30
0.0
 10
13.049881738645766
 20
3.7585649137851256
 30
0.0
 10
12.977466182499148
 20
3.79330708661492
 30
0.0
  0
LINE
  5
75
330
17
100
AcDbEntity
  8
0
  6
Continuous
 62
7
370
25
100
AcDbLine
 10
13.000707289498056
 20
0.24999999999999645
 30
0.0
 11
12.95849178526971
 21
0.4075504066495945
 31
0.0
  0
LINE
  5
76
330
17
100
AcDbEntity
  8
0
  6
Continuous
 62
7
370
25
100
AcDbLine
 10
13.110606088620102
 20
0.44830931138975316
 30
0.0
 11
13.152821592848449
 21
0.2907589047401409
 31
0.0
  0
LINE
  5
77
330
17
100
AcDbEntity
  8
0
  6
Continuous
 62
7
370
25
100
AcDbLine
 10
12.840092683596481
 20
3.5454204473779463
 30
0.0
 11
12.78732330330908
 21
3.7423584556889757
 31
0.0
  0
LINE
  5
78
330
17
100
AcDbEntity
  8
0
  6
Continuous
 62
7
370
25
100
AcDbLine
 10
12.977466182498056
 20
3.79330708661416
 30
0.0
 11
13.030235562785457
 21
3.5963690783031304
 31
0.0
  0
LINE
  5
79
330
17
100
AcDbEntity
  8
0
  6
Continuous
 62
7
370
25
100
AcDbLine
 10
13.078960585773647
 20
0.6074809746102225
 30
0.0
 11
13.078960585773647
 21
3.3990922136771538
 31
0.0
  0
LINE
  5
7A
330
17
100
AcDbEntity
  8
0
  6
Continuous
 62
7
370
25
100
AcDbLine
 10
12.901795231442938
 20
0.5551632828858111
 30
0.0
 11
12.901795231442938
 21
3.3475174538582557
 31
0.0
  0
ARC
  5
7B
330
17
100
AcDbEntity
  8
0
  6
Continuous
 62
7
370
25
100
AcDbCircle
 10
13.052956211379945
 20
0.35923297559841316
 30
0.0
 40
0.1061042032348301
100
AcDbArc
 50
57.0892041846
 51
152.9107958154
  0
ARC
  5
7C
330
17
100
AcDbEntity
  8
0
  6
Continuous
 62
7
370
25
100
AcDbCircle
 10
12.912155030143724
 20
3.6567658671181
 30
0.0
 40
0.1326302540435391
100
AcDbArc
 50
-122.91079581540005
 51
-27.089204184600025
  0
SPLINE
  5
7D
330
17
100
AcDbEntity
  8
0
  6
Continuous
 62
7
370
25
100
AcDbSpline
 70
8
 71
3
 72
15
 73
11
 74
0
 42
1e-09
 43
0.001
 40
0.0
 40
0.0
 40
0.0
 40
0.0
 40
0.1903008812880466
 40
0.2542314365168828
 40
0.3181619917457191
 40
0.4921591957196382
 40
0.6661563996935571
 40
0.7321225925218806
 40
0.7980887853502038
 40
1.0
 40
1.0
 40
1.0
 40
1.0
 10
14.70873438417831
 20
0.3722767142216554
 30
0.0
 10
14.804866020938622
 20
0.5382566494217542
 30
0.0
 10
14.886999160343743
 20
0.7799911226882728
 30
0.0
 10
14.880884216267855
 20
1.1079312136879622
 30
0.0
 10
14.67327208495277
 20
1.361007127935352
 30
0.0
 10
14.20535180486932
 20
1.3078878956155648
 30
0.0
 10
13.811496255983405
 20
1.1138869439663495
 30
0.0
 10
13.703696317391385
 20
0.8066675200587383
 30
0.0
 10
13.817359302379485
 20
0.474579915304588
 30
0.0
 10
14.0785941393686
 20
0.3333812147915012
 30
0.0
 10
14.252391474120484
 20
0.25
 30
0.0
  0
SPLINE
  5
7E
330
17
100
AcDbEntity
  8
0
  6
Continuous
 62
7
370
25
100
AcDbSpline
 70
8
 71
3
 72
15
 73
11
 74
0
 42
1e-09
 43
0.001
 40
0.0
 40
0.0
 40
0.0
 40
0.0
 40
0.1903008812880466
 40
0.2542314365168828
 40
0.3181619917457191
 40
0.4921591957196382
 40
0.6661563996935571
 40
0.7321225925218806
 40
0.7980887853502038
 40
1.0
 40
1.0
 40
1.0
 40
1.0
 10
13.65285043661455
 20
6.682146983014363
 30
0.0
 10
13.540696860394185
 20
6.488503725280921
 30
0.0
 10
13.444874864421541
 20
6.20648017313664
 30
0.0
 10
13.452008965843408
 20
5.8238834003036715
 30
0.0
 10
13.694223119044338
 20
5.528628167015043
 30
0.0
 10
14.24013011247503
 20
5.590600604721459
 30
0.0
 10
14.699628252841933
 20
5.816935048312203
 30
0.0
 10
14.825394847865958
 20
6.175357709537749
 30
0.0
 10
14.692788032046513
 20
6.5627932484175915
 30
0.0
 10
14.388014055559214
 20
6.727525065682869
 30
0.0
 10
14.185250498348681
 20
6.824803149606296
 30
0.0
  0
LINE
  5
7F
330
17
100
AcDbEntity
  8
0
  6
Continuous
 62
7
370
25
100
AcDbLine
 10
14.252391474119474
 20
0.25000000000166267
 30
0.0
 11
14.125744961434433
 21
0.7226512199504782
 31
0.0
  0
LINE
  5
80
330
17
100
AcDbEntity
  8
0
  6
Continuous
 62
7
370
25
100
AcDbLine
 10
14.582087871489552
 20
0.8449279341709541
 30
0.0
 11
14.708734384178527
 21
0.3722767142221386
 31
0.0
  0
LINE
  5
81
330
17
100
AcDbEntity
  8
0
  6
Continuous
 62
7
370
25
100
AcDbLine
 10
13.800604701414748
 20
6.1307205597418175
 30
0.0
 11
13.652850436615536
 21
6.682146983013467
 31
0.0
  0
LINE
  5
82
330
17
100
AcDbEntity
  8
0
  6
Continuous
 62
7
370
25
100
AcDbLine
 10
14.18525049834782
 20
6.824803149607959
 30
0.0
 11
14.333004763150969
 21
6.273376726332373
 31
0.0
  0
LINE
  5
83
330
17
100
AcDbEntity
  8
0
  6
Continuous
 62
7
370
25
100
AcDbLine
 10
14.437938764528921
 20
1.3202161580607168
 30
0.0
 11
14.437938764528921
 21
5.705216843513469
 31
0.0
  0
LINE
  5
84
330
17
100
AcDbEntity
  8
0
  6
Continuous
 62
7
370
25
100
AcDbLine
 10
14.00486789838719
 20
1.194038917749694
 30
0.0
 11
14.00486789838719
 21
5.579770567938667
 31
0.0
  0
ARC
  5
85
330
17
100
AcDbEntity
  8
0
  6
Continuous
 62
7
370
25
100
AcDbCircle
 10
14.40913823976908
 20
0.5776989267930048
 30
0.0
 40
0.3183126097044908
100
AcDbArc
 50
57.0892041846
 51
152.9107958154
  0
ARC
  5
86
330
17
100
AcDbEntity
  8
0
  6
Continuous
 62
7
370
25
100
AcDbCircle
 10
14.002379271757269
 20
6.442487735013472
 30
0.0
 40
0.3713647113219087
100
AcDbArc
 50
-122.91079581540005
 51
-27.089204184600025
  0
SPLINE
  5
87
330
17
100
AcDbEntity
  8
0
  6
Continuous
 62
7
370
25
100
AcDbSpline
 70
8
 71
3
 72
15
 73
11
 74
0
 42
1e-09
 43
0.001
 40
0.0
 40
0.0
 40
0.0
 40
0.0
 40
0.1903008812880466
 40
0.2542314365168828
 40
0.3181619917457191
 40
0.4921591957196382
 40
0.6661563996935571
 40
0.7321225925218806
 40
0.7980887853502038
 40
1.0
 40
1.0
 40
1.0
 40
1.0
 10
16.38089141424116
 20
0.3722767142216554
 30
0.0
 10
16.47702305100147
 20
0.5382566494217542
 30
0.0
 10
16.559156190406593
 20
0.7799911226882728
 30
0.0
 10
16.553041246330704
 20
1.1079312136879622
 30
0.0
 10
16.34542911501562
 20
1.361007127935352
 30
0.0
 10
15.877508834932168
 20
1.3078878956155648
 30
0.0
 10
15.483653286046254
 20
1.1138869439663495
 30
0.0
 10
15.375853347454234
 20
0.8066675200587383
 30
0.0
 10
15.489516332442333
 20
0.474579915304588
 30
0.0
 10
15.750751169431448
 20
0.3333812147915012
 30
0.0
 10
15.924548504183333
 20
0.25
 30
0.0
  0
SPLINE
  5
88
330
17
100
AcDbEntity
  8
0
  6
Continuous
 62
7
370
25
100
AcDbSpline
 70
8
 71
3
 72
15
 73
11
 74
0
 42
1e-09
 43
0.001
 40
0.0
 40
0.0
 40
0.0
 40
0.0
 40
0.1903008812880466
 40
0.2542314365168828
 40
0.3181619917457191
 40
0.4921591957196382
 40
0.6661563996935571
 40
0.7321225925218806
 40
0.7980887853502038
 40
1.0
 40
1.0
 40
1.0
 40
1.0
 10
15.325007466677398
 20
6.682146983014363
 30
0.0
 10
15.212853890457033
 20
6.488503725280921
 30
0.0
 10
15.11703189448439
 20
6.20648017313664
 30
0.0
 10
15.124165995906257
 20
5.8238834003036715
 30
0.0
 10
15.366380149107187
 20
5.528628167015043
 30
0.0
 10
15.91228714253788
 20
5.590600604721459
 30
0.0
 10
16.37178528290478
 20
5.816935048312203
 30
0.0
 10
16.497551877928807
 20
6.175357709537749
 30
0.0
 10
16.36494506210936
 20
6.5627932484175915
 30
0.0
 10
16.060171085622063
 20
6.727525065682869
 30
0.0
 10
15.85740752841153
 20
6.824803149606296
 30
0.0
  0
LINE
  5
89
330
17
100
AcDbEntity
  8
0
  6
Continuous
 62
7
370
25
100
AcDbLine
 10
15.924548504182322
 20
0.25000000000166267
 30
0.0
 11
15.797901991497282
 21
0.7226512199504782
 31
0.0
  0
LINE
  5
8A
330
17
100
AcDbEntity
  8
0
  6
Continuous
 62
7
370
25
100
AcDbLine
 10
16.2542449015524
 20
0.8449279341709541
 30
0.0
 11
16.380891414241376
 21
0.3722767142221386
 31
0.0
  0
LINE
  5
8B
330
17
100
AcDbEntity
  8
0
  6
Continuous
 62
7
370
25
100
AcDbLine
 10
15.472761731477597
 20
6.1307205597418175
 30
0.0
 11
15.325007466678384
 21
6.682146983013467
 31
0.0
  0
LINE
  5
8C
330
17
100
AcDbEntity
  8
0
  6
Continuous
 62
7
370
25
100
AcDbLine
 10
15.857407528410668
 20
6.824803149607959
 30
0.0
 11
16.00516179321382
 21
6.273376726332373
 31
0.0
  0
LINE
  5
8D
330
17
100
AcDbEntity
  8
0
  6
Continuous
 62
7
370
25
100
AcDbLine
 10
16.11009579459177
 20
1.3202161580607168
 30
0.0
 11
16.11009579459177
 21
5.705216843513469
 31
0.0
  0
LINE
  5
8E
330
17
100
AcDbEntity
  8
0
  6
Continuous
 62
7
370
25
100
AcDbLine
 10
15.677024928450038
 20
1.194038917749694
 30
0.0
 11
15.677024928450038
 21
5.579770567938667
 31
0.0
  0
ARC
  5
8F
330
17
100
AcDbEntity
  8
0
  6
Continuous
 62
7
370
25
100
AcDbCircle
 10
16.081295269831926
 20
0.5776989267930048
 30
0.0
 40
0.3183126097044908
100
AcDbArc
 50
57.0892041846
 51
152.9107958154
  0
ARC
  5
90
330
17
100
AcDbEntity
  8
0
  6
Continuous
 62
7
370
25
100
AcDbCircle
 10
15.674536301820117
 20
6.442487735013472
 30
0.0
 40
0.3713647113219087
100
AcDbArc
 50
-122.91079581540005
 51
-27.089204184600025
  0
SPLINE
  5
91
330
17
100
AcDbEntity
  8
0
  6
Continuous
 62
7
370
25
100
AcDbSpline
 70
8
 71
3
 72
15
 73
11
 74
0
 42
1e-09
 43
0.001
 40
0.0
 40
0.0
 40
0.0
 40
0.0
 40
0.1903008812880466
 40
0.2542314365168828
 40
0.3181619917457191
 40
0.4921591957196382
 40
0.6661563996935571
 40
0.7321225925218806
 40
0.7980887853502038
 40
1.0
 40
1.0
 40
1.0
 40
1.0
 10
18.053048444304007
 20
0.3722767142216554
 30
0.0
 10
18.14918008106432
 20
0.5382566494217542
 30
0.0
 10
18.231313220469442
 20
0.7799911226882728
 30
0.0
 10
18.225198276393552
 20
1.1079312136879622
 30
0.0
 10
18.017586145078468
 20
1.361007127935352
 30
0.0
 10
17.549665864995017
 20
1.3078878956155648
 30
0.0
 10
17.1558103161091
 20
1.1138869439663495
 30
0.0
 10
17.048010377517084
 20
0.8066675200587383
 30
0.0
 10
17.16167336250518
 20
0.474579915304588
 30
0.0
 10
17.422908199494294
 20
0.3333812147915012
 30
0.0
 10
17.59670553424618
 20
0.25
 30
0.0
  0
SPLINE
  5
92
330
17
100
AcDbEntity
  8
0
  6
Continuous
 62
7
370
25
100
AcDbSpline
 70
8
 71
3
 72
15
 73
11
 74
0
 42
1e-09
 43
0.001
 40
0.0
 40
0.0
 40
0.0
 40
0.0
 40
0.1903008812880466
 40
0.2542314365168828
 40
0.3181619917457191
 40
0.4921591957196382
 40
0.6661563996935571
 40
0.7321225925218806
 40
0.7980887853502038
 40
1.0
 40
1.0
 40
1.0
 40
1.0
 10
16.997164496740247
 20
6.682146983014363
 30
0.0
 10
16.885010920519882
 20
6.488503725280921
 30
0.0
 10
16.78918892454724
 20
6.20648017313664
 30
0.0
 10
16.796323025969105
 20
5.8238834003036715
 30
0.0
 10
17.038537179170035
 20
5.528628167015043
 30
0.0
 10
17.58444417260073
 20
5.590600604721459
 30
0.0
 10
18.04394231296763
 20
5.816935048312203
 30
0.0
 10
18.169708907991655
 20
6.175357709537749
 30
0.0
 10
18.03710209217221
 20
6.5627932484175915
 30
0.0
 10
17.73232811568491
 20
6.727525065682869
 30
0.0
 10
17.529564558474377
 20
6.824803149606296
 30
0.0
  0
LINE
  5
93
330
17
100
AcDbEntity
  8
0
  6
Continuous
 62
7
370
25
100
AcDbLine
 10
17.59670553424517
 20
0.25000000000166267
 30
0.0
 11
17.470059021560132
 21
0.7226512199504782
 31
0.0
  0
LINE
  5
94
330
17
100
AcDbEntity
  8
0
  6
Continuous
 62
7
370
25
100
AcDbLine
 10
17.92640193161525
 20
0.8449279341709541
 30
0.0
 11
18.053048444304224
 21
0.3722767142221386
 31
0.0
  0
LINE
  5
95
330
17
100
AcDbEntity
  8
0
  6
Continuous
 62
7
370
25
100
AcDbLine
 10
17.144918761540445
 20
6.1307205597418175
 30
0.0
 11
16.997164496741235
 21
6.682146983013467
 31
0.0
  0
LINE
  5
96
330
17
100
AcDbEntity
  8
0
  6
Continuous
 62
7
370
25
100
AcDbLine
 10
17.529564558473517
 20
6.824803149607959
 30
0.0
 11
17.677318823276668
 21
6.273376726332373
 31
0.0
  0
LINE
  5
97
330
17
100
AcDbEntity
  8
0
  6
Continuous
 62
7
370
25
100
AcDbLine
 10
17.78225282465462
 20
1.3202161580607168
 30
0.0
 11
17.78225282465462
 21
5.705216843513469
 31
0.0
  0
LINE
  5
98
330
17
100
AcDbEntity
  8
0
  6
Continuous
 62
7
370
25
100
AcDbLine
 10
17.349181958512887
 20
1.194038917749694
 30
0.0
 11
17.349181958512887
 21
5.579770567938667
 31
0.0
  0
ARC
  5
99
330
17
100
AcDbEntity
  8
0
  6
Continuous
 62
7
370
25
100
AcDbCircle
 10
17.753452299894775
 20
0.5776989267930048
 30
0.0
 40
0.3183126097044908
100
AcDbArc
 50
57.0892041846
 51
152.9107958154
  0
ARC
  5
9A
330
17
100
AcDbEntity
  8
0
  6
Continuous
 62
7
370
25
100
AcDbCircle
 10
17.346693331882964
 20
6.442487735013472
 30
0.0
 40
0.3713647113219087
100
AcDbArc
 50
-122.91079581540005
 51
-27.089204184600025
  0
ENDSEC
  0
SECTION
  2
OBJECTS
  0
DICTIONARY
  5
A
330
0
100
AcDbDictionary
281
1
  3
ACAD_COLOR
350
B
  3
ACAD_GROUP
350
C
  3
ACAD_LAYOUT
350
D
  3
ACAD_MATERIAL
350
E
  3
ACAD_MLEADERSTYLE
350
F
  3
ACAD_MLINESTYLE
350
10
  3
ACAD_PLOTSETTINGS
350
11
  3
ACAD_PLOTSTYLENAME
350
12
  3
ACAD_SCALELIST
350
14
  3
ACAD_TABLESTYLE
350
15
  3
ACAD_VISUALSTYLE
350
16
  3
EZDXF_META
350
2D
  0
DICTIONARY
  5
B
330
A
100
AcDbDictionary
281
1
  0
DICTIONARY
  5
C
330
A
100
AcDbDictionary
281
1
  0
DICTIONARY
  5
D
330
A
100
AcDbDictionary
281
1
  3
Model
350
1A
  3
Layout1
350
1E
  0
DICTIONARY
  5
E
330
A
100
AcDbDictionary
281
1
  3
ByBlock
350
1F
  3
ByLayer
350
20
  3
Global
350
21
  0
DICTIONARY
  5
F
330
A
100
AcDbDictionary
281
1
  3
Standard
350
2C
  0
DICTIONARY
  5
10
330
A
100
AcDbDictionary
281
1
  3
Standard
350
22
  0
DICTIONARY
  5
11
330
A
100
AcDbDictionary
281
1
  0
ACDBDICTIONARYWDFLT
  5
12
330
A
100
AcDbDictionary
281
1
  3
Normal
350
13
100
AcDbDictionaryWithDefault
340
13
  0
ACDBPLACEHOLDER
  5
13
330
12
  0
DICTIONARY
  5
14
330
A
100
AcDbDictionary
281
1
  0
DICTIONARY
  5
15
330
A
100
AcDbDictionary
281
1
  0
DICTIONARY
  5
16
330
A
100
AcDbDictionary
281
1
  0
LAYOUT
  5
1A
330
D
100
AcDbPlotSettings
  1

  2
Adobe PDF
  4
A3
  6

 40
7.5
 41
20.0
 42
7.5
 43
20.0
 44
420.0
 45
297.0
 46
0.0
 47
0.0
 48
0.0
 49
0.0
140
0.0
141
0.0
142
1.0
143
1.0
 70
1024
 72
1
 73
1
 74
5
  7

 75
16
 76
0
 77
2
 78
300
147
1.0
148
0.0
149
0.0
100
AcDbLayout
  1
Model
 70
1
 71
0
 10
0.0
 20
0.0
 11
420.0
 21
297.0
 12
0.0
 22
0.0
 32
0.0
 14
1e+20
 24
1e+20
 34
1e+20
 15
-1e+20
 25
-1e+20
 35
-1e+20
146
0.0
 13
0.0
 23
0.0
 33
0.0
 16
1.0
 26
0.0
 36
0.0
 17
0.0
 27
1.0
 37
0.0
 76
1
330
17
  0
LAYOUT
  5
1E
330
D
100
AcDbPlotSettings
  1

  2
Adobe PDF
  4
A3
  6

 40
7.5
 41
20.0
 42
7.5
 43
20.0
 44
420.0
 45
297.0
 46
0.0
 47
0.0
 48
0.0
 49
0.0
140
0.0
141
0.0
142
1.0
143
1.0
 70
0
 72
1
 73
1
 74
5
  7

 75
16
 76
0
 77
2
 78
300
147
1.0
148
0.0
149
0.0
100
AcDbLayout
  1
Layout1
 70
1
 71
1
 10
0.0
 20
0.0
 11
420.0
 21
297.0
 12
0.0
 22
0.0
 32
0.0
 14
1e+20
 24
1e+20
 34
1e+20
 15
-1e+20
 25
-1e+20
 35
-1e+20
146
0.0
 13
0.0
 23
0.0
 33
0.0
 16
1.0
 26
0.0
 36
0.0
 17
0.0
 27
1.0
 37
0.0
 76
1
330
1B
  0
MATERIAL
  5
1F
102
{ACAD_REACTORS
330
E
102
}
330
E
100
AcDbMaterial
  1
ByBlock
  2

 70
0
 40
1.0
 71
1
 41
1.0
 91
-1023410177
 42
1.0
 72
1
  3

 73
1
 74
1
 75
1
 44
0.5
 73
0
 45
1.0
 46
1.0
 77
1
  4

 78
1
 79
1
170
1
 48
1.0
171
1
  6

172
1
173
1
174
1
140
1.0
141
1.0
175
1
  7

176
1
177
1
178
1
143
1.0
179
1
  8

270
1
271
1
272
1
145
1.0
146
1.0
273
1
  9

274
1
275
1
276
1
 42
1.0
 72
1
  3

 73
1
 74
1
 75
1
 94
63
  0
MATERIAL
  5
20
102
{ACAD_REACTORS
330
E
102
}
330
E
100
AcDbMaterial
  1
ByLayer
  2

 70
0
 40
1.0
 71
1
 41
1.0
 91
-1023410177
 42
1.0
 72
1
  3

 73
1
 74
1
 75
1
 44
0.5
 73
0
 45
1.0
 46
1.0
 77
1
  4

 78
1
 79
1
170
1
 48
1.0
171
1
  6

172
1
173
1
174
1
140
1.0
141
1.0
175
1
  7

176
1
177
1
178
1
143
1.0
179
1
  8

270
1
271
1
272
1
145
1.0
146
1.0
273
1
  9

274
1
275
1
276
1
 42
1.0
 72
1
  3

 73
1
 74
1
 75
1
 94
63
  0
MATERIAL
  5
21
102
{ACAD_REACTORS
330
E
102
}
330
E
100
AcDbMaterial
  1
Global
  2

 70
0
 40
1.0
 71
1
 41
1.0
 91
-1023410177
 42
1.0
 72
1
  3

 73
1
 74
1
 75
1
 44
0.5
 73
0
 45
1.0
 46
1.0
 77
1
  4

 78
1
 79
1
170
1
 48
1.0
171
1
  6

172
1
173
1
174
1
140
1.0
141
1.0
175
1
  7

176
1
177
1
178
1
143
1.0
179
1
  8

270
1
271
1
272
1
145
1.0
146
1.0
273
1
  9

274
1
275
1
276
1
 42
1.0
 72
1
  3

 73
1
 74
1
 75
1
 94
63
  0
MLINESTYLE
  5
22
102
{ACAD_REACTORS
330
10
102
}
330
10
100
AcDbMlineStyle
  2
Standard
 70
0
  3

 62
256
 51
90.0
 52
90.0
 71
2
 49
0.5
 62
256
  6
BYLAYER
 49
-0.5
 62
256
  6
BYLAYER
  0
MLEADERSTYLE
  5
2C
102
{ACAD_REACTORS
330
F
102
}
330
F
100
AcDbMLeaderStyle
179
2
170
2
171
1
172
0
 90
2
 40
0.0
 41
0.0
173
1
 91
-1056964608
 92
-2
290
1
 42
2.0
291
1
 43
8.0
  3
Standard
 44
4.0
300

342
29
174
1
175
1
176
0
178
1
 93
-1056964608
 45
4.0
292
0
297
0
 46
4.0
 94
-1056964608
 47
1.0
 49
1.0
140
1.0
294
1
141
0.0
177
0
142
1.0
295
0
296
0
143
3.75
271
0
272
9
273
9
  0
DICTIONARY
  5
2D
330
A
100
AcDbDictionary
280
1
281
1
  3
CREATED_BY_EZDXF
350
2E
  3
WRITTEN_BY_EZDXF
350
9D
  0
DICTIONARYVAR
  5
2E
330
2D
100
DictionaryVariables
280
0
  1
0.17.1 @ 2021-12-19T23:45:14.988124+00:00
  0
DICTIONARYVAR
  5
9D
330
2D
100
DictionaryVariables
280
0
  1
0.17.1 @ 2021-12-19T23:45:15.412221+00:00
  0
ENDSEC
  0
EOF
