  0
SECTION
  2
HEADER
  9
$ACADVER
  1
AC1024
  9
$ACADMAINTVER
 70
6
  9
$DWGCODEPAGE
  3
ANSI_1252
  9
$LASTSAVEDBY
  1
ezdxf
  9
$INSBASE
 10
0.0
 20
0.0
 30
0.0
  9
$EXTMIN
 10
1e+20
 20
1e+20
 30
1e+20
  9
$EXTMAX
 10
-1e+20
 20
-1e+20
 30
-1e+20
  9
$LIMMIN
 10
0.0
 20
0.0
  9
$LIMMAX
 10
420.0
 20
297.0
  9
$ORTHOMODE
 70
0
  9
$REGENMODE
 70
1
  9
$FILLMODE
 70
1
  9
$QTEXTMODE
 70
0
  9
$MIRRTEXT
 70
1
  9
$LTSCALE
 40
1.0
  9
$ATTMODE
 70
1
  9
$TEXTSIZE
 40
2.5
  9
$TRACEWID
 40
1.0
  9
$TEXTSTYLE
  7
Standard
  9
$CLAYER
  8
0
  9
$CELTYPE
  6
ByLayer
  9
$CECOLOR
 62
256
  9
$CELTSCALE
 40
1.0
  9
$DISPSILH
 70
0
  9
$DIMSCALE
 40
1.0
  9
$DIMASZ
 40
2.5
  9
$DIMEXO
 40
0.625
  9
$DIMDLI
 40
3.75
  9
$DIMRND
 40
0.0
  9
$DIMDLE
 40
0.0
  9
$DIMEXE
 40
1.25
  9
$DIMTP
 40
0.0
  9
$DIMTM
 40
0.0
  9
$DIMTXT
 40
2.5
  9
$DIMCEN
 40
2.5
  9
$DIMTSZ
 40
0.0
  9
$DIMTOL
 70
0
  9
$DIMLIM
 70
0
  9
$DIMTIH
 70
0
  9
$DIMTOH
 70
0
  9
$DIMSE1
 70
0
  9
$DIMSE2
 70
0
  9
$DIMTAD
 70
1
  9
$DIMZIN
 70
8
  9
$DIMBLK
  1

  9
$DIMASO
 70
1
  9
$DIMSHO
 70
1
  9
$DIMPOST
  1

  9
$DIMAPOST
  1

  9
$DIMALT
 70
0
  9
$DIMALTD
 70
3
  9
$DIMALTF
 40
0.03937007874
  9
$DIMLFAC
 40
1.0
  9
$DIMTOFL
 70
1
  9
$DIMTVP
 40
0.0
  9
$DIMTIX
 70
0
  9
$DIMSOXD
 70
0
  9
$DIMSAH
 70
0
  9
$DIMBLK1
  1

  9
$DIMBLK2
  1

  9
$DIMSTYLE
  2
ISO-25
  9
$DIMCLRD
 70
0
  9
$DIMCLRE
 70
0
  9
$DIMCLRT
 70
0
  9
$DIMTFAC
 40
1.0
  9
$DIMGAP
 40
0.625
  9
$DIMJUST
 70
0
  9
$DIMSD1
 70
0
  9
$DIMSD2
 70
0
  9
$DIMTOLJ
 70
0
  9
$DIMTZIN
 70
8
  9
$DIMALTZ
 70
0
  9
$DIMALTTZ
 70
0
  9
$DIMUPT
 70
0
  9
$DIMDEC
 70
2
  9
$DIMTDEC
 70
2
  9
$DIMALTU
 70
2
  9
$DIMALTTD
 70
3
  9
$DIMTXSTY
  7
Standard
  9
$DIMAUNIT
 70
0
  9
$DIMADEC
 70
0
  9
$DIMALTRND
 40
0.0
  9
$DIMAZIN
 70
0
  9
$DIMDSEP
 70
44
  9
$DIMATFIT
 70
3
  9
$DIMFRAC
 70
0
  9
$DIMLDRBLK
  1

  9
$DIMLUNIT
 70
2
  9
$DIMLWD
 70
-2
  9
$DIMLWE
 70
-2
  9
$DIMTMOVE
 70
0
  9
$DIMFXL
 40
1.0
  9
$DIMFXLON
 70
0
  9
$DIMJOGANG
 40
0.785398163397
  9
$DIMTFILL
 70
0
  9
$DIMTFILLCLR
 70
0
  9
$DIMARCSYM
 70
0
  9
$DIMLTYPE
  6

  9
$DIMLTEX1
  6

  9
$DIMLTEX2
  6

  9
$DIMTXTDIRECTION
 70
0
  9
$LUNITS
 70
2
  9
$LUPREC
 70
4
  9
$SKETCHINC
 40
1.0
  9
$FILLETRAD
 40
10.0
  9
$AUNITS
 70
0
  9
$AUPREC
 70
2
  9
$MENU
  1
.
  9
$ELEVATION
 40
0.0
  9
$PELEVATION
 40
0.0
  9
$THICKNESS
 40
0.0
  9
$LIMCHECK
 70
0
  9
$CHAMFERA
 40
0.0
  9
$CHAMFERB
 40
0.0
  9
$CHAMFERC
 40
0.0
  9
$CHAMFERD
 40
0.0
  9
$SKPOLY
 70
0
  9
$TDCREATE
 40
2459568.781423611
  9
$TDUCREATE
 40
2458532.153996898
  9
$TDUPDATE
 40
2459568.781435185
  9
$TDUUPDATE
 40
2458532.1544311
  9
$TDINDWG
 40
0.0
  9
$TDUSRTIMER
 40
0.0
  9
$USRTIMER
 70
1
  9
$ANGBASE
 50
0.0
  9
$ANGDIR
 70
0
  9
$PDMODE
 70
0
  9
$PDSIZE
 40
0.0
  9
$PLINEWID
 40
0.0
  9
$SPLFRAME
 70
0
  9
$SPLINETYPE
 70
6
  9
$SPLINESEGS
 70
8
  9
$HANDSEED
  5
7A
  9
$SURFTAB1
 70
6
  9
$SURFTAB2
 70
6
  9
$SURFTYPE
 70
6
  9
$SURFU
 70
6
  9
$SURFV
 70
6
  9
$UCSBASE
  2

  9
$UCSNAME
  2

  9
$UCSORG
 10
0.0
 20
0.0
 30
0.0
  9
$UCSXDIR
 10
1.0
 20
0.0
 30
0.0
  9
$UCSYDIR
 10
0.0
 20
1.0
 30
0.0
  9
$UCSORTHOREF
  2

  9
$UCSORTHOVIEW
 70
0
  9
$UCSORGTOP
 10
0.0
 20
0.0
 30
0.0
  9
$UCSORGBOTTOM
 10
0.0
 20
0.0
 30
0.0
  9
$UCSORGLEFT
 10
0.0
 20
0.0
 30
0.0
  9
$UCSORGRIGHT
 10
0.0
 20
0.0
 30
0.0
  9
$UCSORGFRONT
 10
0.0
 20
0.0
 30
0.0
  9
$UCSORGBACK
 10
0.0
 20
0.0
 30
0.0
  9
$PUCSBASE
  2

  9
$PUCSNAME
  2

  9
$PUCSORG
 10
0.0
 20
0.0
 30
0.0
  9
$PUCSXDIR
 10
1.0
 20
0.0
 30
0.0
  9
$PUCSYDIR
 10
0.0
 20
1.0
 30
0.0
  9
$PUCSORTHOREF
  2

  9
$PUCSORTHOVIEW
 70
0
  9
$PUCSORGTOP
 10
0.0
 20
0.0
 30
0.0
  9
$PUCSORGBOTTOM
 10
0.0
 20
0.0
 30
0.0
  9
$PUCSORGLEFT
 10
0.0
 20
0.0
 30
0.0
  9
$PUCSORGRIGHT
 10
0.0
 20
0.0
 30
0.0
  9
$PUCSORGFRONT
 10
0.0
 20
0.0
 30
0.0
  9
$PUCSORGBACK
 10
0.0
 20
0.0
 30
0.0
  9
$USERI1
 70
0
  9
$USERI2
 70
0
  9
$USERI3
 70
0
  9
$USERI4
 70
0
  9
$USERI5
 70
0
  9
$USERR1
 40
0.0
  9
$USERR2
 40
0.0
  9
$USERR3
 40
0.0
  9
$USERR4
 40
0.0
  9
$USERR5
 40
0.0
  9
$WORLDVIEW
 70
1
  9
$SHADEDGE
 70
3
  9
$SHADEDIF
 70
70
  9
$TILEMODE
 70
1
  9
$MAXACTVP
 70
64
  9
$PINSBASE
 10
0.0
 20
0.0
 30
0.0
  9
$PLIMCHECK
 70
0
  9
$PEXTMIN
 10
1e+20
 20
1e+20
 30
1e+20
  9
$PEXTMAX
 10
-1e+20
 20
-1e+20
 30
-1e+20
  9
$PLIMMIN
 10
0.0
 20
0.0
  9
$PLIMMAX
 10
420.0
 20
297.0
  9
$UNITMODE
 70
0
  9
$VISRETAIN
 70
1
  9
$PLINEGEN
 70
0
  9
$PSLTSCALE
 70
1
  9
$TREEDEPTH
 70
3020
  9
$CMLSTYLE
  2
Standard
  9
$CMLJUST
 70
0
  9
$CMLSCALE
 40
20.0
  9
$PROXYGRAPHICS
 70
1
  9
$MEASUREMENT
 70
1
  9
$CELWEIGHT
370
-1
  9
$ENDCAPS
280
0
  9
$JOINSTYLE
280
0
  9
$LWDISPLAY
290
0
  9
$INSUNITS
 70
6
  9
$HYPERLINKBASE
  1

  9
$STYLESHEET
  1

  9
$XEDIT
290
1
  9
$CEPSNTYPE
380
0
  9
$PSTYLEMODE
290
1
  9
$FINGERPRINTGUID
  2
{3551FDC3-1C74-455D-AE00-95B0C6E9FC63}
  9
$VERSIONGUID
  2
{75E47138-68CC-4B7B-8C0D-8B1C957710FC}
  9
$EXTNAMES
290
1
  9
$PSVPSCALE
 40
0.0
  9
$OLESTARTUP
290
0
  9
$SORTENTS
280
127
  9
$INDEXCTL
280
0
  9
$HIDETEXT
280
1
  9
$XCLIPFRAME
280
0
  9
$HALOGAP
280
0
  9
$OBSCOLOR
 70
257
  9
$OBSLTYPE
280
0
  9
$INTERSECTIONDISPLAY
280
0
  9
$INTERSECTIONCOLOR
 70
257
  9
$DIMASSOC
280
2
  9
$PROJECTNAME
  1

  9
$CAMERADISPLAY
290
0
  9
$LENSLENGTH
 40
50.0
  9
$CAMERAHEIGHT
 40
0.0
  9
$STEPSPERSEC
 40
24.0
  9
$STEPSIZE
 40
100.0
  9
$3DDWFPREC
 40
2.0
  9
$PSOLWIDTH
 40
0.005
  9
$PSOLHEIGHT
 40
0.08
  9
$LOFTANG1
 40
1.570796326795
  9
$LOFTANG2
 40
1.570796326795
  9
$LOFTMAG1
 40
0.0
  9
$LOFTMAG2
 40
0.0
  9
$LOFTPARAM
 70
7
  9
$LOFTNORMALS
280
1
  9
$LATITUDE
 40
37.795
  9
$LONGITUDE
 40
-122.394
  9
$NORTHDIRECTION
 40
0.0
  9
$TIMEZONE
 70
-8000
  9
$LIGHTGLYPHDISPLAY
280
1
  9
$TILEMODELIGHTSYNCH
280
1
  9
$CMATERIAL
347
20
  9
$SOLIDHIST
280
0
  9
$SHOWHIST
280
1
  9
$DWFFRAME
280
2
  9
$DGNFRAME
280
2
  9
$REALWORLDSCALE
290
1
  9
$INTERFERECOLOR
 62
256
  9
$CSHADOW
280
0
  9
$SHADOWPLANELOCATION
 40
0.0
  0
ENDSEC
  0
SECTION
  2
CLASSES
  0
CLASS
  1
ACDBDICTIONARYWDFLT
  2
AcDbDictionaryWithDefault
  3
ObjectDBX Classes
 90
0
 91
0
280
0
281
0
  0
CLASS
  1
SUN
  2
AcDbSun
  3
SCENEOE
 90
1153
 91
0
280
0
281
0
  0
CLASS
  1
VISUALSTYLE
  2
AcDbVisualStyle
  3
ObjectDBX Classes
 90
4095
 91
0
280
0
281
0
  0
CLASS
  1
MATERIAL
  2
AcDbMaterial
  3
ObjectDBX Classes
 90
1153
 91
0
280
0
281
0
  0
CLASS
  1
SCALE
  2
AcDbScale
  3
ObjectDBX Classes
 90
1153
 91
0
280
0
281
0
  0
CLASS
  1
TABLESTYLE
  2
AcDbTableStyle
  3
ObjectDBX Classes
 90
4095
 91
0
280
0
281
0
  0
CLASS
  1
MLEADERSTYLE
  2
AcDbMLeaderStyle
  3
ACDB_MLEADERSTYLE_CLASS
 90
4095
 91
0
280
0
281
0
  0
CLASS
  1
DICTIONARYVAR
  2
AcDbDictionaryVar
  3
ObjectDBX Classes
 90
0
 91
0
280
0
281
0
  0
CLASS
  1
CELLSTYLEMAP
  2
AcDbCellStyleMap
  3
ObjectDBX Classes
 90
1152
 91
0
280
0
281
0
  0
CLASS
  1
MENTALRAYRENDERSETTINGS
  2
AcDbMentalRayRenderSettings
  3
SCENEOE
 90
1024
 91
0
280
0
281
0
  0
CLASS
  1
ACDBDETAILVIEWSTYLE
  2
AcDbDetailViewStyle
  3
ObjectDBX Classes
 90
1025
 91
0
280
0
281
0
  0
CLASS
  1
ACDBSECTIONVIEWSTYLE
  2
AcDbSectionViewStyle
  3
ObjectDBX Classes
 90
1025
 91
0
280
0
281
0
  0
CLASS
  1
RASTERVARIABLES
  2
AcDbRasterVariables
  3
ISM
 90
0
 91
0
280
0
281
0
  0
CLASS
  1
ACDBPLACEHOLDER
  2
AcDbPlaceHolder
  3
ObjectDBX Classes
 90
0
 91
0
280
0
281
0
  0
CLASS
  1
LAYOUT
  2
AcDbLayout
  3
ObjectDBX Classes
 90
0
 91
0
280
0
281
0
  0
ENDSEC
  0
SECTION
  2
TABLES
  0
TABLE
  2
VPORT
  5
8
330
0
100
AcDbSymbolTable
 70
1
  0
VPORT
  5
23
330
8
100
AcDbSymbolTableRecord
100
AcDbViewportTableRecord
  2
*Active
 70
0
 10
0.0
 20
0.0
 11
1.0
 21
1.0
 12
344.2
 22
148.5
 13
0.0
 23
0.0
 14
0.5
 24
0.5
 15
0.5
 25
0.5
 16
0.0
 26
0.0
 36
1.0
 17
0.0
 27
0.0
 37
0.0
 40
297.0
 41
1.34
 42
50.0
 43
0.0
 44
0.0
 50
0.0
 51
0.0
 71
0
 72
1000
 73
1
 74
3
 75
0
 76
0
 77
0
 78
0
281
0
 65
0
146
0.0
  0
ENDTAB
  0
TABLE
  2
LTYPE
  5
2
330
0
100
AcDbSymbolTable
 70
3
  0
LTYPE
  5
24
330
2
100
AcDbSymbolTableRecord
100
AcDbLinetypeTableRecord
  2
ByBlock
 70
0
  3

 72
65
 73
0
 40
0.0
  0
LTYPE
  5
25
330
2
100
AcDbSymbolTableRecord
100
AcDbLinetypeTableRecord
  2
ByLayer
 70
0
  3

 72
65
 73
0
 40
0.0
  0
LTYPE
  5
26
330
2
100
AcDbSymbolTableRecord
100
AcDbLinetypeTableRecord
  2
Continuous
 70
0
  3

 72
65
 73
0
 40
0.0
  0
ENDTAB
  0
TABLE
  2
LAYER
  5
1
330
0
100
AcDbSymbolTable
 70
2
  0
LAYER
  5
27
330
1
100
AcDbSymbolTableRecord
100
AcDbLayerTableRecord
  2
0
 70
0
 62
7
  6
Continuous
370
-3
390
13
347
21
  0
LAYER
  5
28
330
1
100
AcDbSymbolTableRecord
100
AcDbLayerTableRecord
  2
Defpoints
 70
0
 62
7
  6
Continuous
290
0
370
-3
390
13
347
21
  0
ENDTAB
  0
TABLE
  2
STYLE
  5
5
330
0
100
AcDbSymbolTable
 70
1
  0
STYLE
  5
29
330
5
100
AcDbSymbolTableRecord
100
AcDbTextStyleTableRecord
  2
Standard
 70
0
 40
0.0
 41
1.0
 50
0.0
 71
0
 42
2.5
  3
txt
  4

  0
ENDTAB
  0
TABLE
  2
VIEW
  5
7
330
0
100
AcDbSymbolTable
 70
0
  0
ENDTAB
  0
TABLE
  2
UCS
  5
6
330
0
100
AcDbSymbolTable
 70
0
  0
ENDTAB
  0
TABLE
  2
APPID
  5
3
330
0
100
AcDbSymbolTable
 70
3
  0
APPID
  5
2A
330
3
100
AcDbSymbolTableRecord
100
AcDbRegAppTableRecord
  2
ACAD
 70
0
  0
APPID
  5
77
330
3
100
AcDbSymbolTableRecord
100
AcDbRegAppTableRecord
  2
HATCHBACKGROUNDCOLOR
 70
0
  0
APPID
  5
78
330
3
100
AcDbSymbolTableRecord
100
AcDbRegAppTableRecord
  2
EZDXF
 70
0
  0
ENDTAB
  0
TABLE
  2
DIMSTYLE
  5
4
330
0
100
AcDbSymbolTable
 70
1
100
AcDbDimStyleTable
  0
DIMSTYLE
105
2B
330
4
100
AcDbSymbolTableRecord
100
AcDbDimStyleTableRecord
  2
Standard
 70
0
 40
1.0
 41
2.5
 42
0.625
 43
3.75
 44
1.25
 45
0.0
 46
0.0
 47
0.0
 48
0.0
 49
2.5
140
2.5
141
2.5
142
0.0
143
0.03937007874
144
1.0
145
0.0
146
1.0
147
0.625
148
0.0
 69
0
 70
0
 71
0
 72
0
 73
0
 74
0
 75
0
 76
0
 77
1
 78
8
 79
3
170
0
171
3
172
1
173
0
174
0
175
0
176
0
177
0
178
0
179
2
271
2
272
2
273
2
274
3
275
0
276
0
277
2
278
44
279
0
280
0
281
0
282
0
283
0
284
8
285
0
286
0
288
0
289
3
290
0
371
-2
372
-2
  0
ENDTAB
  0
TABLE
  2
BLOCK_RECORD
  5
9
330
0
100
AcDbSymbolTable
 70
2
  0
BLOCK_RECORD
  5
17
330
9
100
AcDbSymbolTableRecord
100
AcDbBlockTableRecord
  2
*Model_Space
340
1A
 70
0
280
1
281
0
  0
BLOCK_RECORD
  5
1B
330
9
100
AcDbSymbolTableRecord
100
AcDbBlockTableRecord
  2
*Paper_Space
340
1E
 70
0
280
1
281
0
  0
ENDTAB
  0
ENDSEC
  0
SECTION
  2
BLOCKS
  0
BLOCK
  5
18
330
17
100
AcDbEntity
  8
0
100
AcDbBlockBegin
  2
*Model_Space
 70
0
 10
0.0
 20
0.0
 30
0.0
  3
*Model_Space
  1

  0
ENDBLK
  5
19
330
17
100
AcDbEntity
  8
0
100
AcDbBlockEnd
  0
BLOCK
  5
1C
330
1B
100
AcDbEntity
  8
0
100
AcDbBlockBegin
  2
*Paper_Space
 70
0
 10
0.0
 20
0.0
 30
0.0
  3
*Paper_Space
  1

  0
ENDBLK
  5
1D
330
1B
100
AcDbEntity
  8
0
100
AcDbBlockEnd
  0
ENDSEC
  0
SECTION
  2
ENTITIES
  0
LINE
  5
2F
330
17
100
AcDbEntity
  8
0
  6
Continuous
 62
7
370
25
100
AcDbLine
 10
0.0
 20
2.7112946221999996
 30
0.0
 11
0.0
 21
0.25
 31
0.0
  0
LINE
  5
30
330
17
100
AcDbEntity
  8
0
  6
Continuous
 62
7
370
25
100
AcDbLine
 10
0.0
 20
0.25
 30
0.0
 11
1.1360193672
 21
0.25
 31
0.0
  0
LINE
  5
31
330
17
100
AcDbEntity
  8
0
  6
Continuous
 62
7
370
25
100
AcDbLine
 10
1.1360193672
 20
0.25
 30
0.0
 11
1.1360193672
 21
2.7112946221999996
 31
0.0
  0
LINE
  5
32
330
17
100
AcDbEntity
  8
0
  6
Continuous
 62
7
370
25
100
AcDbLine
 10
1.1360193672
 20
2.7112946221999996
 30
0.0
 11
0.7659966775
 21
2.7112946221999996
 31
0.0
  0
LINE
  5
33
330
17
100
AcDbEntity
  8
0
  6
Continuous
 62
7
370
25
100
AcDbLine
 10
0.7659966775
 20
2.7112946221999996
 30
0.0
 11
0.7659966775
 21
4.7848088747999995
 31
0.0
  0
LINE
  5
34
330
17
100
AcDbEntity
  8
0
  6
Continuous
 62
7
370
25
100
AcDbLine
 10
0.7659966775
 20
4.7848088747999995
 30
0.0
 11
0.3000106431
 21
4.7848088747999995
 31
0.0
  0
LINE
  5
35
330
17
100
AcDbEntity
  8
0
  6
Continuous
 62
7
370
25
100
AcDbLine
 10
0.3000106431
 20
4.7848088747999995
 30
0.0
 11
0.3000106431
 21
2.7112946221999996
 31
0.0
  0
LINE
  5
36
330
17
100
AcDbEntity
  8
0
  6
Continuous
 62
7
370
25
100
AcDbLine
 10
0.3000106431
 20
2.7112946221999996
 30
0.0
 11
0.0
 21
2.7112946221999996
 31
0.0
  0
LINE
  5
37
330
17
100
AcDbEntity
  8
0
  6
Continuous
 62
7
370
25
100
AcDbLine
 10
1.3860193671999999
 20
2.7112946221999996
 30
0.0
 11
1.3860193671999999
 21
0.25
 31
0.0
  0
LINE
  5
38
330
17
100
AcDbEntity
  8
0
  6
Continuous
 62
7
370
25
100
AcDbLine
 10
1.3860193671999999
 20
0.25
 30
0.0
 11
2.5220387344
 21
0.25
 31
0.0
  0
LINE
  5
39
330
17
100
AcDbEntity
  8
0
  6
Continuous
 62
7
370
25
100
AcDbLine
 10
2.5220387344
 20
0.25
 30
0.0
 11
2.5220387344
 21
2.7112946221999996
 31
0.0
  0
LINE
  5
3A
330
17
100
AcDbEntity
  8
0
  6
Continuous
 62
7
370
25
100
AcDbLine
 10
2.5220387344
 20
2.7112946221999996
 30
0.0
 11
2.1520160447
 21
2.7112946221999996
 31
0.0
  0
LINE
  5
3B
330
17
100
AcDbEntity
  8
0
  6
Continuous
 62
7
370
25
100
AcDbLine
 10
2.1520160447
 20
2.7112946221999996
 30
0.0
 11
2.1520160447
 21
4.7848088747999995
 31
0.0
  0
LINE
  5
3C
330
17
100
AcDbEntity
  8
0
  6
Continuous
 62
7
370
25
100
AcDbLine
 10
2.1520160447
 20
4.7848088747999995
 30
0.0
 11
1.6860300102999999
 21
4.7848088747999995
 31
0.0
  0
LINE
  5
3D
330
17
100
AcDbEntity
  8
0
  6
Continuous
 62
7
370
25
100
AcDbLine
 10
1.6860300102999999
 20
4.7848088747999995
 30
0.0
 11
1.6860300102999999
 21
2.7112946221999996
 31
0.0
  0
LINE
  5
3E
330
17
100
AcDbEntity
  8
0
  6
Continuous
 62
7
370
25
100
AcDbLine
 10
1.6860300102999999
 20
2.7112946221999996
 30
0.0
 11
1.3860193671999999
 21
2.7112946221999996
 31
0.0
  0
LINE
  5
3F
330
17
100
AcDbEntity
  8
0
  6
Continuous
 62
7
370
25
100
AcDbLine
 10
2.7720387344
 20
2.7112946221999996
 30
0.0
 11
2.7720387344
 21
0.25
 31
0.0
  0
LINE
  5
40
330
17
100
AcDbEntity
  8
0
  6
Continuous
 62
7
370
25
100
AcDbLine
 10
2.7720387344
 20
0.25
 30
0.0
 11
3.9080581016000004
 21
0.25
 31
0.0
  0
LINE
  5
41
330
17
100
AcDbEntity
  8
0
  6
Continuous
 62
7
370
25
100
AcDbLine
 10
3.9080581016000004
 20
0.25
 30
0.0
 11
3.9080581016000004
 21
2.7112946221999996
 31
0.0
  0
LINE
  5
42
330
17
100
AcDbEntity
  8
0
  6
Continuous
 62
7
370
25
100
AcDbLine
 10
3.9080581016000004
 20
2.7112946221999996
 30
0.0
 11
3.5380354119
 21
2.7112946221999996
 31
0.0
  0
LINE
  5
43
330
17
100
AcDbEntity
  8
0
  6
Continuous
 62
7
370
25
100
AcDbLine
 10
3.5380354119
 20
2.7112946221999996
 30
0.0
 11
3.5380354119
 21
4.7848088747999995
 31
0.0
  0
LINE
  5
44
330
17
100
AcDbEntity
  8
0
  6
Continuous
 62
7
370
25
100
AcDbLine
 10
3.5380354119
 20
4.7848088747999995
 30
0.0
 11
3.0720493775000004
 21
4.7848088747999995
 31
0.0
  0
LINE
  5
45
330
17
100
AcDbEntity
  8
0
  6
Continuous
 62
7
370
25
100
AcDbLine
 10
3.0720493775000004
 20
4.7848088747999995
 30
0.0
 11
3.0720493775000004
 21
2.7112946221999996
 31
0.0
  0
LINE
  5
46
330
17
100
AcDbEntity
  8
0
  6
Continuous
 62
7
370
25
100
AcDbLine
 10
3.0720493775000004
 20
2.7112946221999996
 30
0.0
 11
2.7720387344
 21
2.7112946221999996
 31
0.0
  0
LINE
  5
47
330
17
100
AcDbEntity
  8
0
  6
Continuous
 62
7
370
25
100
AcDbLine
 10
4.1580581016
 20
2.7112946221999996
 30
0.0
 11
4.1580581016
 21
0.25
 31
0.0
  0
LINE
  5
48
330
17
100
AcDbEntity
  8
0
  6
Continuous
 62
7
370
25
100
AcDbLine
 10
4.1580581016
 20
0.25
 30
0.0
 11
5.294077468799999
 21
0.25
 31
0.0
  0
LINE
  5
49
330
17
100
AcDbEntity
  8
0
  6
Continuous
 62
7
370
25
100
AcDbLine
 10
5.294077468799999
 20
0.25
 30
0.0
 11
5.294077468799999
 21
2.7112946221999996
 31
0.0
  0
LINE
  5
4A
330
17
100
AcDbEntity
  8
0
  6
Continuous
 62
7
370
25
100
AcDbLine
 10
5.294077468799999
 20
2.7112946221999996
 30
0.0
 11
4.9240547791
 21
2.7112946221999996
 31
0.0
  0
LINE
  5
4B
330
17
100
AcDbEntity
  8
0
  6
Continuous
 62
7
370
25
100
AcDbLine
 10
4.9240547791
 20
2.7112946221999996
 30
0.0
 11
4.9240547791
 21
4.7848088747999995
 31
0.0
  0
LINE
  5
4C
330
17
100
AcDbEntity
  8
0
  6
Continuous
 62
7
370
25
100
AcDbLine
 10
4.9240547791
 20
4.7848088747999995
 30
0.0
 11
4.458068744699999
 21
4.7848088747999995
 31
0.0
  0
LINE
  5
4D
330
17
100
AcDbEntity
  8
0
  6
Continuous
 62
7
370
25
100
AcDbLine
 10
4.458068744699999
 20
4.7848088747999995
 30
0.0
 11
4.458068744699999
 21
2.7112946221999996
 31
0.0
  0
LINE
  5
4E
330
17
100
AcDbEntity
  8
0
  6
Continuous
 62
7
370
25
100
AcDbLine
 10
4.458068744699999
 20
2.7112946221999996
 30
0.0
 11
4.1580581016
 21
2.7112946221999996
 31
0.0
  0
SPLINE
  5
4F
330
17
100
AcDbEntity
  8
0
  6
Continuous
 62
7
370
25
100
AcDbSpline
 70
8
 71
3
 72
15
 73
11
 74
0
 42
1e-09
 43
0.001
 40
0.0
 40
0.0
 40
0.0
 40
0.0
 40
0.1903008812880466
 40
0.2542314365168828
 40
0.3181619917457191
 40
0.4921591957196382
 40
0.6661563996935571
 40
0.7321225925218806
 40
0.7980887853502038
 40
1.0
 40
1.0
 40
1.0
 40
1.0
 10
5.9755818536729945
 20
0.29075890474130617
 30
0.0
 10
6.007625732593098
 20
0.34608554980800577
 30
0.0
 10
6.035003445728139
 20
0.42666370756350247
 30
0.0
 10
6.0329651310361765
 20
0.5359770712300609
 30
0.0
 10
5.963761087264482
 20
0.6203357093125312
 30
0.0
 10
5.807787660569998
 20
0.6026292985392665
 30
0.0
 10
5.676502477608027
 20
0.5379623146562018
 30
0.0
 10
5.6405691647440195
 20
0.43555584002033143
 30
0.0
 10
5.67845682640672
 20
0.3248599717689409
 30
0.0
 10
5.7655351054030906
 20
0.277793738264581
 30
0.0
 10
5.823467550320386
 20
0.25000000000075673
 30
0.0
  0
SPLINE
  5
50
330
17
100
AcDbEntity
  8
0
  6
Continuous
 62
7
370
25
100
AcDbSpline
 70
8
 71
3
 72
15
 73
11
 74
0
 42
1e-09
 43
0.001
 40
0.0
 40
0.0
 40
0.0
 40
0.0
 40
0.1903008812880466
 40
0.2542314365168828
 40
0.3181619917457191
 40
0.4921591957196382
 40
0.6661563996935571
 40
0.7321225925218806
 40
0.7980887853502038
 40
1.0
 40
1.0
 40
1.0
 40
1.0
 10
5.610083564131692
 20
3.7423584556892244
 30
0.0
 10
5.570028715481562
 20
3.6732001493558535
 30
0.0
 10
5.535806574062761
 20
3.5724774521614755
 30
0.0
 10
5.5383544674277125
 20
3.4358357475782704
 30
0.0
 10
5.624859522142331
 20
3.3303874499751807
 30
0.0
 10
5.819826305510436
 20
3.35252046344176
 30
0.0
 10
5.9839327842129
 20
3.433354193295603
 30
0.0
 10
6.0288494252929095
 20
3.561362286590441
 30
0.0
 10
5.981489848214537
 20
3.6997321219046704
 30
0.0
 10
5.872641999469073
 20
3.7585649137851256
 30
0.0
 10
5.800226443322454
 20
3.79330708661492
 30
0.0
  0
LINE
  5
51
330
17
100
AcDbEntity
  8
0
  6
Continuous
 62
7
370
25
100
AcDbLine
 10
5.823467550321362
 20
0.24999999999999645
 30
0.0
 11
5.781252046093015
 21
0.4075504066495945
 31
0.0
  0
LINE
  5
52
330
17
100
AcDbEntity
  8
0
  6
Continuous
 62
7
370
25
100
AcDbLine
 10
5.933366349443409
 20
0.44830931138975316
 30
0.0
 11
5.975581853671755
 21
0.2907589047401409
 31
0.0
  0
LINE
  5
53
330
17
100
AcDbEntity
  8
0
  6
Continuous
 62
7
370
25
100
AcDbLine
 10
5.662852944419787
 20
3.5454204473779463
 30
0.0
 11
5.610083564132385
 21
3.7423584556889757
 31
0.0
  0
LINE
  5
54
330
17
100
AcDbEntity
  8
0
  6
Continuous
 62
7
370
25
100
AcDbLine
 10
5.800226443321362
 20
3.79330708661416
 30
0.0
 11
5.8529958236087625
 21
3.5963690783031304
 31
0.0
  0
LINE
  5
55
330
17
100
AcDbEntity
  8
0
  6
Continuous
 62
7
370
25
100
AcDbLine
 10
5.901720846596952
 20
0.6074809746102225
 30
0.0
 11
5.901720846596952
 21
3.3990922136771538
 31
0.0
  0
LINE
  5
56
330
17
100
AcDbEntity
  8
0
  6
Continuous
 62
7
370
25
100
AcDbLine
 10
5.7245554922662425
 20
0.5551632828858111
 30
0.0
 11
5.7245554922662425
 21
3.3475174538582557
 31
0.0
  0
ARC
  5
57
330
17
100
AcDbEntity
  8
0
  6
Continuous
 62
7
370
25
100
AcDbCircle
 10
5.87571647220325
 20
0.35923297559841316
 30
0.0
 40
0.1061042032348301
100
AcDbArc
 50
57.0892041846
 51
152.9107958154
  0
ARC
  5
58
330
17
100
AcDbEntity
  8
0
  6
Continuous
 62
7
370
25
100
AcDbCircle
 10
5.734915290967031
 20
3.6567658671181
 30
0.0
 40
0.1326302540435391
100
AcDbArc
 50
-122.91079581540005
 51
-27.089204184600025
  0
SPLINE
  5
59
330
17
100
AcDbEntity
  8
0
  6
Continuous
 62
7
370
25
100
AcDbSpline
 70
8
 71
3
 72
15
 73
11
 74
0
 42
1e-09
 43
0.001
 40
0.0
 40
0.0
 40
0.0
 40
0.0
 40
0.1903008812880466
 40
0.2542314365168828
 40
0.3181619917457191
 40
0.4921591957196382
 40
0.6661563996935571
 40
0.7321225925218806
 40
0.7980887853502038
 40
1.0
 40
1.0
 40
1.0
 40
1.0
 10
6.7098911148113425
 20
0.29075890474130617
 30
0.0
 10
6.741934993731446
 20
0.34608554980800577
 30
0.0
 10
6.769312706866487
 20
0.42666370756350247
 30
0.0
 10
6.767274392174524
 20
0.5359770712300609
 30
0.0
 10
6.69807034840283
 20
0.6203357093125312
 30
0.0
 10
6.542096921708346
 20
0.6026292985392665
 30
0.0
 10
6.410811738746375
 20
0.5379623146562018
 30
0.0
 10
6.374878425882367
 20
0.43555584002033143
 30
0.0
 10
6.412766087545068
 20
0.3248599717689409
 30
0.0
 10
6.4998443665414385
 20
0.277793738264581
 30
0.0
 10
6.557776811458734
 20
0.25000000000075673
 30
0.0
  0
SPLINE
  5
5A
330
17
100
AcDbEntity
  8
0
  6
Continuous
 62
7
370
25
100
AcDbSpline
 70
8
 71
3
 72
15
 73
11
 74
0
 42
1e-09
 43
0.001
 40
0.0
 40
0.0
 40
0.0
 40
0.0
 40
0.1903008812880466
 40
0.2542314365168828
 40
0.3181619917457191
 40
0.4921591957196382
 40
0.6661563996935571
 40
0.7321225925218806
 40
0.7980887853502038
 40
1.0
 40
1.0
 40
1.0
 40
1.0
 10
6.34439282527004
 20
3.7423584556892244
 30
0.0
 10
6.30433797661991
 20
3.6732001493558535
 30
0.0
 10
6.270115835201109
 20
3.5724774521614755
 30
0.0
 10
6.2726637285660605
 20
3.4358357475782704
 30
0.0
 10
6.359168783280679
 20
3.3303874499751807
 30
0.0
 10
6.5541355666487835
 20
3.35252046344176
 30
0.0
 10
6.718242045351248
 20
3.433354193295603
 30
0.0
 10
6.763158686431257
 20
3.561362286590441
 30
0.0
 10
6.715799109352885
 20
3.6997321219046704
 30
0.0
 10
6.6069512606074206
 20
3.7585649137851256
 30
0.0
 10
6.534535704460802
 20
3.79330708661492
 30
0.0
  0
LINE
  5
5B
330
17
100
AcDbEntity
  8
0
  6
Continuous
 62
7
370
25
100
AcDbLine
 10
6.55777681145971
 20
0.24999999999999645
 30
0.0
 11
6.515561307231363
 21
0.4075504066495945
 31
0.0
  0
LINE
  5
5C
330
17
100
AcDbEntity
  8
0
  6
Continuous
 62
7
370
25
100
AcDbLine
 10
6.667675610581757
 20
0.44830931138975316
 30
0.0
 11
6.709891114810103
 21
0.2907589047401409
 31
0.0
  0
LINE
  5
5D
330
17
100
AcDbEntity
  8
0
  6
Continuous
 62
7
370
25
100
AcDbLine
 10
6.397162205558135
 20
3.5454204473779463
 30
0.0
 11
6.344392825270733
 21
3.7423584556889757
 31
0.0
  0
LINE
  5
5E
330
17
100
AcDbEntity
  8
0
  6
Continuous
 62
7
370
25
100
AcDbLine
 10
6.53453570445971
 20
3.79330708661416
 30
0.0
 11
6.58730508474711
 21
3.5963690783031304
 31
0.0
  0
LINE
  5
5F
330
17
100
AcDbEntity
  8
0
  6
Continuous
 62
7
370
25
100
AcDbLine
 10
6.6360301077353
 20
0.6074809746102225
 30
0.0
 11
6.6360301077353
 21
3.3990922136771538
 31
0.0
  0
LINE
  5
60
330
17
100
AcDbEntity
  8
0
  6
Continuous
 62
7
370
25
100
AcDbLine
 10
6.45886475340459
 20
0.5551632828858111
 30
0.0
 11
6.45886475340459
 21
3.3475174538582557
 31
0.0
  0
ARC
  5
61
330
17
100
AcDbEntity
  8
0
  6
Continuous
 62
7
370
25
100
AcDbCircle
 10
6.610025733341598
 20
0.35923297559841316
 30
0.0
 40
0.1061042032348301
100
AcDbArc
 50
57.0892041846
 51
152.9107958154
  0
ARC
  5
62
330
17
100
AcDbEntity
  8
0
  6
Continuous
 62
7
370
25
100
AcDbCircle
 10
6.469224552105379
 20
3.6567658671181
 30
0.0
 40
0.1326302540435391
100
AcDbArc
 50
-122.91079581540005
 51
-27.089204184600025
  0
SPLINE
  5
63
330
17
100
AcDbEntity
  8
0
  6
Continuous
 62
7
370
25
100
AcDbSpline
 70
8
 71
3
 72
15
 73
11
 74
0
 42
1e-09
 43
0.001
 40
0.0
 40
0.0
 40
0.0
 40
0.0
 40
0.1903008812880466
 40
0.2542314365168828
 40
0.3181619917457191
 40
0.4921591957196382
 40
0.6661563996935571
 40
0.7321225925218806
 40
0.7980887853502038
 40
1.0
 40
1.0
 40
1.0
 40
1.0
 10
7.44420037594969
 20
0.29075890474130617
 30
0.0
 10
7.476244254869794
 20
0.34608554980800577
 30
0.0
 10
7.503621968004835
 20
0.42666370756350247
 30
0.0
 10
7.501583653312872
 20
0.5359770712300609
 30
0.0
 10
7.432379609541178
 20
0.6203357093125312
 30
0.0
 10
7.276406182846694
 20
0.6026292985392665
 30
0.0
 10
7.145120999884723
 20
0.5379623146562018
 30
0.0
 10
7.109187687020715
 20
0.43555584002033143
 30
0.0
 10
7.1470753486834155
 20
0.3248599717689409
 30
0.0
 10
7.234153627679786
 20
0.277793738264581
 30
0.0
 10
7.2920860725970815
 20
0.25000000000075673
 30
0.0
  0
SPLINE
  5
64
330
17
100
AcDbEntity
  8
0
  6
Continuous
 62
7
370
25
100
AcDbSpline
 70
8
 71
3
 72
15
 73
11
 74
0
 42
1e-09
 43
0.001
 40
0.0
 40
0.0
 40
0.0
 40
0.0
 40
0.1903008812880466
 40
0.2542314365168828
 40
0.3181619917457191
 40
0.4921591957196382
 40
0.6661563996935571
 40
0.7321225925218806
 40
0.7980887853502038
 40
1.0
 40
1.0
 40
1.0
 40
1.0
 10
7.078702086408388
 20
3.7423584556892244
 30
0.0
 10
7.038647237758258
 20
3.6732001493558535
 30
0.0
 10
7.004425096339457
 20
3.5724774521614755
 30
0.0
 10
7.006972989704408
 20
3.4358357475782704
 30
0.0
 10
7.093478044419027
 20
3.3303874499751807
 30
0.0
 10
7.288444827787131
 20
3.35252046344176
 30
0.0
 10
7.452551306489596
 20
3.433354193295603
 30
0.0
 10
7.497467947569605
 20
3.561362286590441
 30
0.0
 10
7.4501083704912325
 20
3.6997321219046704
 30
0.0
 10
7.3412605217457685
 20
3.7585649137851256
 30
0.0
 10
7.26884496559915
 20
3.79330708661492
 30
0.0
  0
LINE
  5
65
330
17
100
AcDbEntity
  8
0
  6
Continuous
 62
7
370
25
100
AcDbLine
 10
7.292086072598058
 20
0.24999999999999645
 30
0.0
 11
7.249870568369711
 21
0.4075504066495945
 31
0.0
  0
LINE
  5
66
330
17
100
AcDbEntity
  8
0
  6
Continuous
 62
7
370
25
100
AcDbLine
 10
7.401984871720105
 20
0.44830931138975316
 30
0.0
 11
7.4442003759484505
 21
0.2907589047401409
 31
0.0
  0
LINE
  5
67
330
17
100
AcDbEntity
  8
0
  6
Continuous
 62
7
370
25
100
AcDbLine
 10
7.131471466696483
 20
3.5454204473779463
 30
0.0
 11
7.078702086409081
 21
3.7423584556889757
 31
0.0
  0
LINE
  5
68
330
17
100
AcDbEntity
  8
0
  6
Continuous
 62
7
370
25
100
AcDbLine
 10
7.268844965598058
 20
3.79330708661416
 30
0.0
 11
7.321614345885458
 21
3.5963690783031304
 31
0.0
  0
LINE
  5
69
330
17
100
AcDbEntity
  8
0
  6
Continuous
 62
7
370
25
100
AcDbLine
 10
7.370339368873648
 20
0.6074809746102225
 30
0.0
 11
7.370339368873648
 21
3.3990922136771538
 31
0.0
  0
LINE
  5
6A
330
17
100
AcDbEntity
  8
0
  6
Continuous
 62
7
370
25
100
AcDbLine
 10
7.193174014542938
 20
0.5551632828858111
 30
0.0
 11
7.193174014542938
 21
3.3475174538582557
 31
0.0
  0
ARC
  5
6B
330
17
100
AcDbEntity
  8
0
  6
Continuous
 62
7
370
25
100
AcDbCircle
 10
7.344334994479946
 20
0.35923297559841316
 30
0.0
 40
0.1061042032348301
100
AcDbArc
 50
57.0892041846
 51
152.9107958154
  0
ARC
  5
6C
330
17
100
AcDbEntity
  8
0
  6
Continuous
 62
7
370
25
100
AcDbCircle
 10
7.203533813243727
 20
3.6567658671181
 30
0.0
 40
0.1326302540435391
100
AcDbArc
 50
-122.91079581540005
 51
-27.089204184600025
  0
SPLINE
  5
6D
330
17
100
AcDbEntity
  8
0
  6
Continuous
 62
7
370
25
100
AcDbSpline
 70
8
 71
3
 72
15
 73
11
 74
0
 42
1e-09
 43
0.001
 40
0.0
 40
0.0
 40
0.0
 40
0.0
 40
0.1903008812880466
 40
0.2542314365168828
 40
0.3181619917457191
 40
0.4921591957196382
 40
0.6661563996935571
 40
0.7321225925218806
 40
0.7980887853502038
 40
1.0
 40
1.0
 40
1.0
 40
1.0
 10
9.33065074675736
 20
0.41303561896219065
 30
0.0
 10
9.458826262437773
 20
0.634342199228989
 30
0.0
 10
9.568337114977936
 20
0.9566548302509901
 30
0.0
 10
9.560183856210084
 20
1.3939082849172806
 30
0.0
 10
9.283367681123304
 20
1.7313428372471904
 30
0.0
 10
8.65947397434537
 20
1.6605171941540888
 30
0.0
 10
8.134333242497483
 20
1.4018492586217874
 30
0.0
 10
7.990599991041458
 20
0.9922233600782917
 30
0.0
 10
8.142150637692257
 20
0.5494398870727863
 30
0.0
 10
8.490463753677743
 20
0.3611749530553894
 30
0.0
 10
8.722193533346923
 20
0.2499999999999929
 30
0.0
  0
SPLINE
  5
6E
330
17
100
AcDbEntity
  8
0
  6
Continuous
 62
7
370
25
100
AcDbSpline
 70
8
 71
3
 72
15
 73
11
 74
0
 42
1e-09
 43
0.001
 40
0.0
 40
0.0
 40
0.0
 40
0.0
 40
0.1903008812880466
 40
0.2542314365168828
 40
0.3181619917457191
 40
0.4921591957196382
 40
0.6661563996935571
 40
0.7321225925218806
 40
0.7980887853502038
 40
1.0
 40
1.0
 40
1.0
 40
1.0
 10
7.990490351772585
 20
8.344491190285687
 30
0.0
 10
7.854303866362141
 20
8.109352948752282
 30
0.0
 10
7.737948585538217
 20
7.766895778291392
 30
0.0
 10
7.746611422979055
 20
7.30231398270849
 30
0.0
 10
8.040728609008756
 20
6.9437897708579825
 30
0.0
 10
8.703615672460312
 20
7.019042016644384
 30
0.0
 10
9.261577700048694
 20
7.293876698147393
 30
0.0
 10
9.414294279720725
 20
7.7291042153497855
 30
0.0
 10
9.253271717654254
 20
8.199561655418186
 30
0.0
 10
8.883189031919677
 20
8.399593147811792
 30
0.0
 10
8.636976141021172
 20
8.517716535433088
 30
0.0
  0
LINE
  5
6F
330
17
100
AcDbEntity
  8
0
  6
Continuous
 62
7
370
25
100
AcDbLine
 10
8.722193533346887
 20
0.2500000000008882
 30
0.0
 11
8.553331516429564
 21
0.88020162659938
 31
0.0
  0
LINE
  5
70
330
17
100
AcDbEntity
  8
0
  6
Continuous
 62
7
370
25
100
AcDbLine
 10
9.16178872984295
 20
1.043237245559986
 30
0.0
 11
9.330650746756335
 21
0.4130356189615796
 31
0.0
  0
LINE
  5
71
330
17
100
AcDbEntity
  8
0
  6
Continuous
 62
7
370
25
100
AcDbLine
 10
8.169906244744524
 20
7.674901962024485
 30
0.0
 11
7.990490351772083
 21
8.34449119028438
 31
0.0
  0
LINE
  5
72
330
17
100
AcDbEntity
  8
0
  6
Continuous
 62
7
370
25
100
AcDbLine
 10
8.636976141020115
 20
8.517716535433983
 30
0.0
 11
8.816392033992557
 21
7.848127307170181
 31
0.0
  0
LINE
  5
73
330
17
100
AcDbEntity
  8
0
  6
Continuous
 62
7
370
25
100
AcDbLine
 10
8.976151600346887
 20
1.6774521501425923
 30
0.0
 11
8.976151600346887
 21
7.174313221744988
 31
0.0
  0
LINE
  5
74
330
17
100
AcDbEntity
  8
0
  6
Continuous
 62
7
370
25
100
AcDbLine
 10
8.385600419244525
 20
1.5052045116780803
 30
0.0
 11
8.385600419244525
 21
7.002544037918192
 31
0.0
  0
ARC
  5
75
330
17
100
AcDbEntity
  8
0
  6
Continuous
 62
7
370
25
100
AcDbCircle
 10
8.931189220878384
 20
0.6869319023906897
 30
0.0
 40
0.4244168129393193
100
AcDbArc
 50
57.0892041846
 51
152.9107958154
  0
ARC
  5
76
330
17
100
AcDbEntity
  8
0
  6
Continuous
 62
7
370
25
100
AcDbCircle
 10
8.414918223020116
 20
8.05347638914268
 30
0.0
 40
0.4509428637480259
100
AcDbArc
 50
-122.91079581540005
 51
-27.089204184600025
  0
ENDSEC
  0
SECTION
  2
OBJECTS
  0
DICTIONARY
  5
A
330
0
100
AcDbDictionary
281
1
  3
ACAD_COLOR
350
B
  3
ACAD_GROUP
350
C
  3
ACAD_LAYOUT
350
D
  3
ACAD_MATERIAL
350
E
  3
ACAD_MLEADERSTYLE
350
F
  3
ACAD_MLINESTYLE
350
10
  3
ACAD_PLOTSETTINGS
350
11
  3
ACAD_PLOTSTYLENAME
350
12
  3
ACAD_SCALELIST
350
14
  3
ACAD_TABLESTYLE
350
15
  3
ACAD_VISUALSTYLE
350
16
  3
EZDXF_META
350
2D
  0
DICTIONARY
  5
B
330
A
100
AcDbDictionary
281
1
  0
DICTIONARY
  5
C
330
A
100
AcDbDictionary
281
1
  0
DICTIONARY
  5
D
330
A
100
AcDbDictionary
281
1
  3
Model
350
1A
  3
Layout1
350
1E
  0
DICTIONARY
  5
E
330
A
100
AcDbDictionary
281
1
  3
ByBlock
350
1F
  3
ByLayer
350
20
  3
Global
350
21
  0
DICTIONARY
  5
F
330
A
100
AcDbDictionary
281
1
  3
Standard
350
2C
  0
DICTIONARY
  5
10
330
A
100
AcDbDictionary
281
1
  3
Standard
350
22
  0
DICTIONARY
  5
11
330
A
100
AcDbDictionary
281
1
  0
ACDBDICTIONARYWDFLT
  5
12
330
A
100
AcDbDictionary
281
1
  3
Normal
350
13
100
AcDbDictionaryWithDefault
340
13
  0
ACDBPLACEHOLDER
  5
13
330
12
  0
DICTIONARY
  5
14
330
A
100
AcDbDictionary
281
1
  0
DICTIONARY
  5
15
330
A
100
AcDbDictionary
281
1
  0
DICTIONARY
  5
16
330
A
100
AcDbDictionary
281
1
  0
LAYOUT
  5
1A
330
D
100
AcDbPlotSettings
  1

  2
Adobe PDF
  4
A3
  6

 40
7.5
 41
20.0
 42
7.5
 43
20.0
 44
420.0
 45
297.0
 46
0.0
 47
0.0
 48
0.0
 49
0.0
140
0.0
141
0.0
142
1.0
143
1.0
 70
1024
 72
1
 73
1
 74
5
  7

 75
16
 76
0
 77
2
 78
300
147
1.0
148
0.0
149
0.0
100
AcDbLayout
  1
Model
 70
1
 71
0
 10
0.0
 20
0.0
 11
420.0
 21
297.0
 12
0.0
 22
0.0
 32
0.0
 14
1e+20
 24
1e+20
 34
1e+20
 15
-1e+20
 25
-1e+20
 35
-1e+20
146
0.0
 13
0.0
 23
0.0
 33
0.0
 16
1.0
 26
0.0
 36
0.0
 17
0.0
 27
1.0
 37
0.0
 76
1
330
17
  0
LAYOUT
  5
1E
330
D
100
AcDbPlotSettings
  1

  2
Adobe PDF
  4
A3
  6

 40
7.5
 41
20.0
 42
7.5
 43
20.0
 44
420.0
 45
297.0
 46
0.0
 47
0.0
 48
0.0
 49
0.0
140
0.0
141
0.0
142
1.0
143
1.0
 70
0
 72
1
 73
1
 74
5
  7

 75
16
 76
0
 77
2
 78
300
147
1.0
148
0.0
149
0.0
100
AcDbLayout
  1
Layout1
 70
1
 71
1
 10
0.0
 20
0.0
 11
420.0
 21
297.0
 12
0.0
 22
0.0
 32
0.0
 14
1e+20
 24
1e+20
 34
1e+20
 15
-1e+20
 25
-1e+20
 35
-1e+20
146
0.0
 13
0.0
 23
0.0
 33
0.0
 16
1.0
 26
0.0
 36
0.0
 17
0.0
 27
1.0
 37
0.0
 76
1
330
1B
  0
MATERIAL
  5
1F
102
{ACAD_REACTORS
330
E
102
}
330
E
100
AcDbMaterial
  1
ByBlock
  2

 70
0
 40
1.0
 71
1
 41
1.0
 91
-1023410177
 42
1.0
 72
1
  3

 73
1
 74
1
 75
1
 44
0.5
 73
0
 45
1.0
 46
1.0
 77
1
  4

 78
1
 79
1
170
1
 48
1.0
171
1
  6

172
1
173
1
174
1
140
1.0
141
1.0
175
1
  7

176
1
177
1
178
1
143
1.0
179
1
  8

270
1
271
1
272
1
145
1.0
146
1.0
273
1
  9

274
1
275
1
276
1
 42
1.0
 72
1
  3

 73
1
 74
1
 75
1
 94
63
  0
MATERIAL
  5
20
102
{ACAD_REACTORS
330
E
102
}
330
E
100
AcDbMaterial
  1
ByLayer
  2

 70
0
 40
1.0
 71
1
 41
1.0
 91
-1023410177
 42
1.0
 72
1
  3

 73
1
 74
1
 75
1
 44
0.5
 73
0
 45
1.0
 46
1.0
 77
1
  4

 78
1
 79
1
170
1
 48
1.0
171
1
  6

172
1
173
1
174
1
140
1.0
141
1.0
175
1
  7

176
1
177
1
178
1
143
1.0
179
1
  8

270
1
271
1
272
1
145
1.0
146
1.0
273
1
  9

274
1
275
1
276
1
 42
1.0
 72
1
  3

 73
1
 74
1
 75
1
 94
63
  0
MATERIAL
  5
21
102
{ACAD_REACTORS
330
E
102
}
330
E
100
AcDbMaterial
  1
Global
  2

 70
0
 40
1.0
 71
1
 41
1.0
 91
-1023410177
 42
1.0
 72
1
  3

 73
1
 74
1
 75
1
 44
0.5
 73
0
 45
1.0
 46
1.0
 77
1
  4

 78
1
 79
1
170
1
 48
1.0
171
1
  6

172
1
173
1
174
1
140
1.0
141
1.0
175
1
  7

176
1
177
1
178
1
143
1.0
179
1
  8

270
1
271
1
272
1
145
1.0
146
1.0
273
1
  9

274
1
275
1
276
1
 42
1.0
 72
1
  3

 73
1
 74
1
 75
1
 94
63
  0
MLINESTYLE
  5
22
102
{ACAD_REACTORS
330
10
102
}
330
10
100
AcDbMlineStyle
  2
Standard
 70
0
  3

 62
256
 51
90.0
 52
90.0
 71
2
 49
0.5
 62
256
  6
BYLAYER
 49
-0.5
 62
256
  6
BYLAYER
  0
MLEADERSTYLE
  5
2C
102
{ACAD_REACTORS
330
F
102
}
330
F
100
AcDbMLeaderStyle
179
2
170
2
171
1
172
0
 90
2
 40
0.0
 41
0.0
173
1
 91
-1056964608
 92
-2
290
1
 42
2.0
291
1
 43
8.0
  3
Standard
 44
4.0
300

342
29
174
1
175
1
176
0
178
1
 93
-1056964608
 45
4.0
292
0
297
0
 46
4.0
 94
-1056964608
 47
1.0
 49
1.0
140
1.0
294
1
141
0.0
177
0
142
1.0
295
0
296
0
143
3.75
271
0
272
9
273
9
  0
DICTIONARY
  5
2D
330
A
100
AcDbDictionary
280
1
281
1
  3
CREATED_BY_EZDXF
350
2E
  3
WRITTEN_BY_EZDXF
350
79
  0
DICTIONARYVAR
  5
2E
330
2D
100
DictionaryVariables
280
0
  1
0.17.1 @ 2021-12-19T23:45:15.787038+00:00
  0
DICTIONARYVAR
  5
79
330
2D
100
DictionaryVariables
280
0
  1
0.17.1 @ 2021-12-19T23:45:16.066521+00:00
  0
ENDSEC
  0
EOF
