  0
SECTION
  2
HEADER
  9
$ACADVER
  1
AC1024
  9
$ACADMAINTVER
 70
6
  9
$DWGCODEPAGE
  3
ANSI_1252
  9
$LASTSAVEDBY
  1
ezdxf
  9
$INSBASE
 10
0.0
 20
0.0
 30
0.0
  9
$EXTMIN
 10
1e+20
 20
1e+20
 30
1e+20
  9
$EXTMAX
 10
-1e+20
 20
-1e+20
 30
-1e+20
  9
$LIMMIN
 10
0.0
 20
0.0
  9
$LIMMAX
 10
420.0
 20
297.0
  9
$ORTHOMODE
 70
0
  9
$REGENMODE
 70
1
  9
$FILLMODE
 70
1
  9
$QTEXTMODE
 70
0
  9
$MIRRTEXT
 70
1
  9
$LTSCALE
 40
1.0
  9
$ATTMODE
 70
1
  9
$TEXTSIZE
 40
2.5
  9
$TRACEWID
 40
1.0
  9
$TEXTSTYLE
  7
Standard
  9
$CLAYER
  8
0
  9
$CELTYPE
  6
ByLayer
  9
$CECOLOR
 62
256
  9
$CELTSCALE
 40
1.0
  9
$DISPSILH
 70
0
  9
$DIMSCALE
 40
1.0
  9
$DIMASZ
 40
2.5
  9
$DIMEXO
 40
0.625
  9
$DIMDLI
 40
3.75
  9
$DIMRND
 40
0.0
  9
$DIMDLE
 40
0.0
  9
$DIMEXE
 40
1.25
  9
$DIMTP
 40
0.0
  9
$DIMTM
 40
0.0
  9
$DIMTXT
 40
2.5
  9
$DIMCEN
 40
2.5
  9
$DIMTSZ
 40
0.0
  9
$DIMTOL
 70
0
  9
$DIMLIM
 70
0
  9
$DIMTIH
 70
0
  9
$DIMTOH
 70
0
  9
$DIMSE1
 70
0
  9
$DIMSE2
 70
0
  9
$DIMTAD
 70
1
  9
$DIMZIN
 70
8
  9
$DIMBLK
  1

  9
$DIMASO
 70
1
  9
$DIMSHO
 70
1
  9
$DIMPOST
  1

  9
$DIMAPOST
  1

  9
$DIMALT
 70
0
  9
$DIMALTD
 70
3
  9
$DIMALTF
 40
0.03937007874
  9
$DIMLFAC
 40
1.0
  9
$DIMTOFL
 70
1
  9
$DIMTVP
 40
0.0
  9
$DIMTIX
 70
0
  9
$DIMSOXD
 70
0
  9
$DIMSAH
 70
0
  9
$DIMBLK1
  1

  9
$DIMBLK2
  1

  9
$DIMSTYLE
  2
ISO-25
  9
$DIMCLRD
 70
0
  9
$DIMCLRE
 70
0
  9
$DIMCLRT
 70
0
  9
$DIMTFAC
 40
1.0
  9
$DIMGAP
 40
0.625
  9
$DIMJUST
 70
0
  9
$DIMSD1
 70
0
  9
$DIMSD2
 70
0
  9
$DIMTOLJ
 70
0
  9
$DIMTZIN
 70
8
  9
$DIMALTZ
 70
0
  9
$DIMALTTZ
 70
0
  9
$DIMUPT
 70
0
  9
$DIMDEC
 70
2
  9
$DIMTDEC
 70
2
  9
$DIMALTU
 70
2
  9
$DIMALTTD
 70
3
  9
$DIMTXSTY
  7
Standard
  9
$DIMAUNIT
 70
0
  9
$DIMADEC
 70
0
  9
$DIMALTRND
 40
0.0
  9
$DIMAZIN
 70
0
  9
$DIMDSEP
 70
44
  9
$DIMATFIT
 70
3
  9
$DIMFRAC
 70
0
  9
$DIMLDRBLK
  1

  9
$DIMLUNIT
 70
2
  9
$DIMLWD
 70
-2
  9
$DIMLWE
 70
-2
  9
$DIMTMOVE
 70
0
  9
$DIMFXL
 40
1.0
  9
$DIMFXLON
 70
0
  9
$DIMJOGANG
 40
0.785398163397
  9
$DIMTFILL
 70
0
  9
$DIMTFILLCLR
 70
0
  9
$DIMARCSYM
 70
0
  9
$DIMLTYPE
  6

  9
$DIMLTEX1
  6

  9
$DIMLTEX2
  6

  9
$DIMTXTDIRECTION
 70
0
  9
$LUNITS
 70
2
  9
$LUPREC
 70
4
  9
$SKETCHINC
 40
1.0
  9
$FILLETRAD
 40
10.0
  9
$AUNITS
 70
0
  9
$AUPREC
 70
2
  9
$MENU
  1
.
  9
$ELEVATION
 40
0.0
  9
$PELEVATION
 40
0.0
  9
$THICKNESS
 40
0.0
  9
$LIMCHECK
 70
0
  9
$CHAMFERA
 40
0.0
  9
$CHAMFERB
 40
0.0
  9
$CHAMFERC
 40
0.0
  9
$CHAMFERD
 40
0.0
  9
$SKPOLY
 70
0
  9
$TDCREATE
 40
2459568.781423611
  9
$TDUCREATE
 40
2458532.153996898
  9
$TDUPDATE
 40
2459568.781423611
  9
$TDUUPDATE
 40
2458532.1544311
  9
$TDINDWG
 40
0.0
  9
$TDUSRTIMER
 40
0.0
  9
$USRTIMER
 70
1
  9
$ANGBASE
 50
0.0
  9
$ANGDIR
 70
0
  9
$PDMODE
 70
0
  9
$PDSIZE
 40
0.0
  9
$PLINEWID
 40
0.0
  9
$SPLFRAME
 70
0
  9
$SPLINETYPE
 70
6
  9
$SPLINESEGS
 70
8
  9
$HANDSEED
  5
84
  9
$SURFTAB1
 70
6
  9
$SURFTAB2
 70
6
  9
$SURFTYPE
 70
6
  9
$SURFU
 70
6
  9
$SURFV
 70
6
  9
$UCSBASE
  2

  9
$UCSNAME
  2

  9
$UCSORG
 10
0.0
 20
0.0
 30
0.0
  9
$UCSXDIR
 10
1.0
 20
0.0
 30
0.0
  9
$UCSYDIR
 10
0.0
 20
1.0
 30
0.0
  9
$UCSORTHOREF
  2

  9
$UCSORTHOVIEW
 70
0
  9
$UCSORGTOP
 10
0.0
 20
0.0
 30
0.0
  9
$UCSORGBOTTOM
 10
0.0
 20
0.0
 30
0.0
  9
$UCSORGLEFT
 10
0.0
 20
0.0
 30
0.0
  9
$UCSORGRIGHT
 10
0.0
 20
0.0
 30
0.0
  9
$UCSORGFRONT
 10
0.0
 20
0.0
 30
0.0
  9
$UCSORGBACK
 10
0.0
 20
0.0
 30
0.0
  9
$PUCSBASE
  2

  9
$PUCSNAME
  2

  9
$PUCSORG
 10
0.0
 20
0.0
 30
0.0
  9
$PUCSXDIR
 10
1.0
 20
0.0
 30
0.0
  9
$PUCSYDIR
 10
0.0
 20
1.0
 30
0.0
  9
$PUCSORTHOREF
  2

  9
$PUCSORTHOVIEW
 70
0
  9
$PUCSORGTOP
 10
0.0
 20
0.0
 30
0.0
  9
$PUCSORGBOTTOM
 10
0.0
 20
0.0
 30
0.0
  9
$PUCSORGLEFT
 10
0.0
 20
0.0
 30
0.0
  9
$PUCSORGRIGHT
 10
0.0
 20
0.0
 30
0.0
  9
$PUCSORGFRONT
 10
0.0
 20
0.0
 30
0.0
  9
$PUCSORGBACK
 10
0.0
 20
0.0
 30
0.0
  9
$USERI1
 70
0
  9
$USERI2
 70
0
  9
$USERI3
 70
0
  9
$USERI4
 70
0
  9
$USERI5
 70
0
  9
$USERR1
 40
0.0
  9
$USERR2
 40
0.0
  9
$USERR3
 40
0.0
  9
$USERR4
 40
0.0
  9
$USERR5
 40
0.0
  9
$WORLDVIEW
 70
1
  9
$SHADEDGE
 70
3
  9
$SHADEDIF
 70
70
  9
$TILEMODE
 70
1
  9
$MAXACTVP
 70
64
  9
$PINSBASE
 10
0.0
 20
0.0
 30
0.0
  9
$PLIMCHECK
 70
0
  9
$PEXTMIN
 10
1e+20
 20
1e+20
 30
1e+20
  9
$PEXTMAX
 10
-1e+20
 20
-1e+20
 30
-1e+20
  9
$PLIMMIN
 10
0.0
 20
0.0
  9
$PLIMMAX
 10
420.0
 20
297.0
  9
$UNITMODE
 70
0
  9
$VISRETAIN
 70
1
  9
$PLINEGEN
 70
0
  9
$PSLTSCALE
 70
1
  9
$TREEDEPTH
 70
3020
  9
$CMLSTYLE
  2
Standard
  9
$CMLJUST
 70
0
  9
$CMLSCALE
 40
20.0
  9
$PROXYGRAPHICS
 70
1
  9
$MEASUREMENT
 70
1
  9
$CELWEIGHT
370
-1
  9
$ENDCAPS
280
0
  9
$JOINSTYLE
280
0
  9
$LWDISPLAY
290
0
  9
$INSUNITS
 70
6
  9
$HYPERLINKBASE
  1

  9
$STYLESHEET
  1

  9
$XEDIT
290
1
  9
$CEPSNTYPE
380
0
  9
$PSTYLEMODE
290
1
  9
$FINGERPRINTGUID
  2
{7A2D0E04-9317-4C7D-9037-4420C0ED707E}
  9
$VERSIONGUID
  2
{19540DA6-11AE-4E11-90B6-9A018DE74F07}
  9
$EXTNAMES
290
1
  9
$PSVPSCALE
 40
0.0
  9
$OLESTARTUP
290
0
  9
$SORTENTS
280
127
  9
$INDEXCTL
280
0
  9
$HIDETEXT
280
1
  9
$XCLIPFRAME
280
0
  9
$HALOGAP
280
0
  9
$OBSCOLOR
 70
257
  9
$OBSLTYPE
280
0
  9
$INTERSECTIONDISPLAY
280
0
  9
$INTERSECTIONCOLOR
 70
257
  9
$DIMASSOC
280
2
  9
$PROJECTNAME
  1

  9
$CAMERADISPLAY
290
0
  9
$LENSLENGTH
 40
50.0
  9
$CAMERAHEIGHT
 40
0.0
  9
$STEPSPERSEC
 40
24.0
  9
$STEPSIZE
 40
100.0
  9
$3DDWFPREC
 40
2.0
  9
$PSOLWIDTH
 40
0.005
  9
$PSOLHEIGHT
 40
0.08
  9
$LOFTANG1
 40
1.570796326795
  9
$LOFTANG2
 40
1.570796326795
  9
$LOFTMAG1
 40
0.0
  9
$LOFTMAG2
 40
0.0
  9
$LOFTPARAM
 70
7
  9
$LOFTNORMALS
280
1
  9
$LATITUDE
 40
37.795
  9
$LONGITUDE
 40
-122.394
  9
$NORTHDIRECTION
 40
0.0
  9
$TIMEZONE
 70
-8000
  9
$LIGHTGLYPHDISPLAY
280
1
  9
$TILEMODELIGHTSYNCH
280
1
  9
$CMATERIAL
347
20
  9
$SOLIDHIST
280
0
  9
$SHOWHIST
280
1
  9
$DWFFRAME
280
2
  9
$DGNFRAME
280
2
  9
$REALWORLDSCALE
290
1
  9
$INTERFERECOLOR
 62
256
  9
$CSHADOW
280
0
  9
$SHADOWPLANELOCATION
 40
0.0
  0
ENDSEC
  0
SECTION
  2
CLASSES
  0
CLASS
  1
ACDBDICTIONARYWDFLT
  2
AcDbDictionaryWithDefault
  3
ObjectDBX Classes
 90
0
 91
0
280
0
281
0
  0
CLASS
  1
SUN
  2
AcDbSun
  3
SCENEOE
 90
1153
 91
0
280
0
281
0
  0
CLASS
  1
VISUALSTYLE
  2
AcDbVisualStyle
  3
ObjectDBX Classes
 90
4095
 91
0
280
0
281
0
  0
CLASS
  1
MATERIAL
  2
AcDbMaterial
  3
ObjectDBX Classes
 90
1153
 91
0
280
0
281
0
  0
CLASS
  1
SCALE
  2
AcDbScale
  3
ObjectDBX Classes
 90
1153
 91
0
280
0
281
0
  0
CLASS
  1
TABLESTYLE
  2
AcDbTableStyle
  3
ObjectDBX Classes
 90
4095
 91
0
280
0
281
0
  0
CLASS
  1
MLEADERSTYLE
  2
AcDbMLeaderStyle
  3
ACDB_MLEADERSTYLE_CLASS
 90
4095
 91
0
280
0
281
0
  0
CLASS
  1
DICTIONARYVAR
  2
AcDbDictionaryVar
  3
ObjectDBX Classes
 90
0
 91
0
280
0
281
0
  0
CLASS
  1
CELLSTYLEMAP
  2
AcDbCellStyleMap
  3
ObjectDBX Classes
 90
1152
 91
0
280
0
281
0
  0
CLASS
  1
MENTALRAYRENDERSETTINGS
  2
AcDbMentalRayRenderSettings
  3
SCENEOE
 90
1024
 91
0
280
0
281
0
  0
CLASS
  1
ACDBDETAILVIEWSTYLE
  2
AcDbDetailViewStyle
  3
ObjectDBX Classes
 90
1025
 91
0
280
0
281
0
  0
CLASS
  1
ACDBSECTIONVIEWSTYLE
  2
AcDbSectionViewStyle
  3
ObjectDBX Classes
 90
1025
 91
0
280
0
281
0
  0
CLASS
  1
RASTERVARIABLES
  2
AcDbRasterVariables
  3
ISM
 90
0
 91
0
280
0
281
0
  0
CLASS
  1
ACDBPLACEHOLDER
  2
AcDbPlaceHolder
  3
ObjectDBX Classes
 90
0
 91
0
280
0
281
0
  0
CLASS
  1
LAYOUT
  2
AcDbLayout
  3
ObjectDBX Classes
 90
0
 91
0
280
0
281
0
  0
ENDSEC
  0
SECTION
  2
TABLES
  0
TABLE
  2
VPORT
  5
8
330
0
100
AcDbSymbolTable
 70
1
  0
VPORT
  5
23
330
8
100
AcDbSymbolTableRecord
100
AcDbViewportTableRecord
  2
*Active
 70
0
 10
0.0
 20
0.0
 11
1.0
 21
1.0
 12
344.2
 22
148.5
 13
0.0
 23
0.0
 14
0.5
 24
0.5
 15
0.5
 25
0.5
 16
0.0
 26
0.0
 36
1.0
 17
0.0
 27
0.0
 37
0.0
 40
297.0
 41
1.34
 42
50.0
 43
0.0
 44
0.0
 50
0.0
 51
0.0
 71
0
 72
1000
 73
1
 74
3
 75
0
 76
0
 77
0
 78
0
281
0
 65
0
146
0.0
  0
ENDTAB
  0
TABLE
  2
LTYPE
  5
2
330
0
100
AcDbSymbolTable
 70
3
  0
LTYPE
  5
24
330
2
100
AcDbSymbolTableRecord
100
AcDbLinetypeTableRecord
  2
ByBlock
 70
0
  3

 72
65
 73
0
 40
0.0
  0
LTYPE
  5
25
330
2
100
AcDbSymbolTableRecord
100
AcDbLinetypeTableRecord
  2
ByLayer
 70
0
  3

 72
65
 73
0
 40
0.0
  0
LTYPE
  5
26
330
2
100
AcDbSymbolTableRecord
100
AcDbLinetypeTableRecord
  2
Continuous
 70
0
  3

 72
65
 73
0
 40
0.0
  0
ENDTAB
  0
TABLE
  2
LAYER
  5
1
330
0
100
AcDbSymbolTable
 70
2
  0
LAYER
  5
27
330
1
100
AcDbSymbolTableRecord
100
AcDbLayerTableRecord
  2
0
 70
0
 62
7
  6
Continuous
370
-3
390
13
347
21
  0
LAYER
  5
28
330
1
100
AcDbSymbolTableRecord
100
AcDbLayerTableRecord
  2
Defpoints
 70
0
 62
7
  6
Continuous
290
0
370
-3
390
13
347
21
  0
ENDTAB
  0
TABLE
  2
STYLE
  5
5
330
0
100
AcDbSymbolTable
 70
1
  0
STYLE
  5
29
330
5
100
AcDbSymbolTableRecord
100
AcDbTextStyleTableRecord
  2
Standard
 70
0
 40
0.0
 41
1.0
 50
0.0
 71
0
 42
2.5
  3
txt
  4

  0
ENDTAB
  0
TABLE
  2
VIEW
  5
7
330
0
100
AcDbSymbolTable
 70
0
  0
ENDTAB
  0
TABLE
  2
UCS
  5
6
330
0
100
AcDbSymbolTable
 70
0
  0
ENDTAB
  0
TABLE
  2
APPID
  5
3
330
0
100
AcDbSymbolTable
 70
3
  0
APPID
  5
2A
330
3
100
AcDbSymbolTableRecord
100
AcDbRegAppTableRecord
  2
ACAD
 70
0
  0
APPID
  5
81
330
3
100
AcDbSymbolTableRecord
100
AcDbRegAppTableRecord
  2
HATCHBACKGROUNDCOLOR
 70
0
  0
APPID
  5
82
330
3
100
AcDbSymbolTableRecord
100
AcDbRegAppTableRecord
  2
EZDXF
 70
0
  0
ENDTAB
  0
TABLE
  2
DIMSTYLE
  5
4
330
0
100
AcDbSymbolTable
 70
1
100
AcDbDimStyleTable
  0
DIMSTYLE
105
2B
330
4
100
AcDbSymbolTableRecord
100
AcDbDimStyleTableRecord
  2
Standard
 70
0
 40
1.0
 41
2.5
 42
0.625
 43
3.75
 44
1.25
 45
0.0
 46
0.0
 47
0.0
 48
0.0
 49
2.5
140
2.5
141
2.5
142
0.0
143
0.03937007874
144
1.0
145
0.0
146
1.0
147
0.625
148
0.0
 69
0
 70
0
 71
0
 72
0
 73
0
 74
0
 75
0
 76
0
 77
1
 78
8
 79
3
170
0
171
3
172
1
173
0
174
0
175
0
176
0
177
0
178
0
179
2
271
2
272
2
273
2
274
3
275
0
276
0
277
2
278
44
279
0
280
0
281
0
282
0
283
0
284
8
285
0
286
0
288
0
289
3
290
0
371
-2
372
-2
  0
ENDTAB
  0
TABLE
  2
BLOCK_RECORD
  5
9
330
0
100
AcDbSymbolTable
 70
2
  0
BLOCK_RECORD
  5
17
330
9
100
AcDbSymbolTableRecord
100
AcDbBlockTableRecord
  2
*Model_Space
340
1A
 70
0
280
1
281
0
  0
BLOCK_RECORD
  5
1B
330
9
100
AcDbSymbolTableRecord
100
AcDbBlockTableRecord
  2
*Paper_Space
340
1E
 70
0
280
1
281
0
  0
ENDTAB
  0
ENDSEC
  0
SECTION
  2
BLOCKS
  0
BLOCK
  5
18
330
17
100
AcDbEntity
  8
0
100
AcDbBlockBegin
  2
*Model_Space
 70
0
 10
0.0
 20
0.0
 30
0.0
  3
*Model_Space
  1

  0
ENDBLK
  5
19
330
17
100
AcDbEntity
  8
0
100
AcDbBlockEnd
  0
BLOCK
  5
1C
330
1B
100
AcDbEntity
  8
0
100
AcDbBlockBegin
  2
*Paper_Space
 70
0
 10
0.0
 20
0.0
 30
0.0
  3
*Paper_Space
  1

  0
ENDBLK
  5
1D
330
1B
100
AcDbEntity
  8
0
100
AcDbBlockEnd
  0
ENDSEC
  0
SECTION
  2
ENTITIES
  0
LINE
  5
2F
330
17
100
AcDbEntity
  8
0
  6
Continuous
 62
7
370
25
100
AcDbLine
 10
0.0
 20
3.2389106384999997
 30
0.0
 11
0.6372752412000002
 21
3.2389106384999997
 31
0.0
  0
LINE
  5
30
330
17
100
AcDbEntity
  8
0
  6
Continuous
 62
7
370
25
100
AcDbLine
 10
0.6372752412000002
 20
3.2389106384999997
 30
0.0
 11
0.6372752412000002
 21
0.25
 31
0.0
  0
LINE
  5
31
330
17
100
AcDbEntity
  8
0
  6
Continuous
 62
7
370
25
100
AcDbLine
 10
0.6372752412000002
 20
0.25
 30
0.0
 11
1.1578662834
 21
0.25
 31
0.0
  0
LINE
  5
32
330
17
100
AcDbEntity
  8
0
  6
Continuous
 62
7
370
25
100
AcDbLine
 10
1.1578662834
 20
0.25
 30
0.0
 11
1.1578662834
 21
3.2389106384999997
 31
0.0
  0
LINE
  5
33
330
17
100
AcDbEntity
  8
0
  6
Continuous
 62
7
370
25
100
AcDbLine
 10
1.1578662834
 20
3.2389106384999997
 30
0.0
 11
1.7233358637
 21
3.2389106384999997
 31
0.0
  0
LINE
  5
34
330
17
100
AcDbEntity
  8
0
  6
Continuous
 62
7
370
25
100
AcDbLine
 10
1.7233358637
 20
3.2389106384999997
 30
0.0
 11
1.7233358637
 21
4.019797201699999
 31
0.0
  0
LINE
  5
35
330
17
100
AcDbEntity
  8
0
  6
Continuous
 62
7
370
25
100
AcDbLine
 10
1.7233358637
 20
4.019797201699999
 30
0.0
 11
0.0
 21
4.019797201699999
 31
0.0
  0
LINE
  5
36
330
17
100
AcDbEntity
  8
0
  6
Continuous
 62
7
370
25
100
AcDbLine
 10
0.0
 20
4.019797201699999
 30
0.0
 11
0.0
 21
3.2389106384999997
 31
0.0
  0
LINE
  5
37
330
17
100
AcDbEntity
  8
0
  6
Continuous
 62
7
370
25
100
AcDbLine
 10
1.9733358637
 20
3.2389106384999997
 30
0.0
 11
2.6106111049000003
 21
3.2389106384999997
 31
0.0
  0
LINE
  5
38
330
17
100
AcDbEntity
  8
0
  6
Continuous
 62
7
370
25
100
AcDbLine
 10
2.6106111049000003
 20
3.2389106384999997
 30
0.0
 11
2.6106111049000003
 21
0.25
 31
0.0
  0
LINE
  5
39
330
17
100
AcDbEntity
  8
0
  6
Continuous
 62
7
370
25
100
AcDbLine
 10
2.6106111049000003
 20
0.25
 30
0.0
 11
3.1312021470999998
 21
0.25
 31
0.0
  0
LINE
  5
3A
330
17
100
AcDbEntity
  8
0
  6
Continuous
 62
7
370
25
100
AcDbLine
 10
3.1312021470999998
 20
0.25
 30
0.0
 11
3.1312021470999998
 21
3.2389106384999997
 31
0.0
  0
LINE
  5
3B
330
17
100
AcDbEntity
  8
0
  6
Continuous
 62
7
370
25
100
AcDbLine
 10
3.1312021470999998
 20
3.2389106384999997
 30
0.0
 11
3.6966717274
 21
3.2389106384999997
 31
0.0
  0
LINE
  5
3C
330
17
100
AcDbEntity
  8
0
  6
Continuous
 62
7
370
25
100
AcDbLine
 10
3.6966717274
 20
3.2389106384999997
 30
0.0
 11
3.6966717274
 21
4.019797201699999
 31
0.0
  0
LINE
  5
3D
330
17
100
AcDbEntity
  8
0
  6
Continuous
 62
7
370
25
100
AcDbLine
 10
3.6966717274
 20
4.019797201699999
 30
0.0
 11
1.9733358637
 21
4.019797201699999
 31
0.0
  0
LINE
  5
3E
330
17
100
AcDbEntity
  8
0
  6
Continuous
 62
7
370
25
100
AcDbLine
 10
1.9733358637
 20
4.019797201699999
 30
0.0
 11
1.9733358637
 21
3.2389106384999997
 31
0.0
  0
LINE
  5
3F
330
17
100
AcDbEntity
  8
0
  6
Continuous
 62
7
370
25
100
AcDbLine
 10
3.9466717274000005
 20
3.2389106384999997
 30
0.0
 11
4.583946968600001
 21
3.2389106384999997
 31
0.0
  0
LINE
  5
40
330
17
100
AcDbEntity
  8
0
  6
Continuous
 62
7
370
25
100
AcDbLine
 10
4.583946968600001
 20
3.2389106384999997
 30
0.0
 11
4.583946968600001
 21
0.25
 31
0.0
  0
LINE
  5
41
330
17
100
AcDbEntity
  8
0
  6
Continuous
 62
7
370
25
100
AcDbLine
 10
4.583946968600001
 20
0.25
 30
0.0
 11
5.104538010800001
 21
0.25
 31
0.0
  0
LINE
  5
42
330
17
100
AcDbEntity
  8
0
  6
Continuous
 62
7
370
25
100
AcDbLine
 10
5.104538010800001
 20
0.25
 30
0.0
 11
5.104538010800001
 21
3.2389106384999997
 31
0.0
  0
LINE
  5
43
330
17
100
AcDbEntity
  8
0
  6
Continuous
 62
7
370
25
100
AcDbLine
 10
5.104538010800001
 20
3.2389106384999997
 30
0.0
 11
5.670007591100001
 21
3.2389106384999997
 31
0.0
  0
LINE
  5
44
330
17
100
AcDbEntity
  8
0
  6
Continuous
 62
7
370
25
100
AcDbLine
 10
5.670007591100001
 20
3.2389106384999997
 30
0.0
 11
5.670007591100001
 21
4.019797201699999
 31
0.0
  0
LINE
  5
45
330
17
100
AcDbEntity
  8
0
  6
Continuous
 62
7
370
25
100
AcDbLine
 10
5.670007591100001
 20
4.019797201699999
 30
0.0
 11
3.9466717274000005
 21
4.019797201699999
 31
0.0
  0
LINE
  5
46
330
17
100
AcDbEntity
  8
0
  6
Continuous
 62
7
370
25
100
AcDbLine
 10
3.9466717274000005
 20
4.019797201699999
 30
0.0
 11
3.9466717274000005
 21
3.2389106384999997
 31
0.0
  0
LINE
  5
47
330
17
100
AcDbEntity
  8
0
  6
Continuous
 62
7
370
25
100
AcDbLine
 10
5.920007591100001
 20
3.2389106384999997
 30
0.0
 11
6.557282832300002
 21
3.2389106384999997
 31
0.0
  0
LINE
  5
48
330
17
100
AcDbEntity
  8
0
  6
Continuous
 62
7
370
25
100
AcDbLine
 10
6.557282832300002
 20
3.2389106384999997
 30
0.0
 11
6.557282832300002
 21
0.25
 31
0.0
  0
LINE
  5
49
330
17
100
AcDbEntity
  8
0
  6
Continuous
 62
7
370
25
100
AcDbLine
 10
6.557282832300002
 20
0.25
 30
0.0
 11
7.077873874500002
 21
0.25
 31
0.0
  0
LINE
  5
4A
330
17
100
AcDbEntity
  8
0
  6
Continuous
 62
7
370
25
100
AcDbLine
 10
7.077873874500002
 20
0.25
 30
0.0
 11
7.077873874500002
 21
3.2389106384999997
 31
0.0
  0
LINE
  5
4B
330
17
100
AcDbEntity
  8
0
  6
Continuous
 62
7
370
25
100
AcDbLine
 10
7.077873874500002
 20
3.2389106384999997
 30
0.0
 11
7.643343454800002
 21
3.2389106384999997
 31
0.0
  0
LINE
  5
4C
330
17
100
AcDbEntity
  8
0
  6
Continuous
 62
7
370
25
100
AcDbLine
 10
7.643343454800002
 20
3.2389106384999997
 30
0.0
 11
7.643343454800002
 21
4.019797201699999
 31
0.0
  0
LINE
  5
4D
330
17
100
AcDbEntity
  8
0
  6
Continuous
 62
7
370
25
100
AcDbLine
 10
7.643343454800002
 20
4.019797201699999
 30
0.0
 11
5.920007591100001
 21
4.019797201699999
 31
0.0
  0
LINE
  5
4E
330
17
100
AcDbEntity
  8
0
  6
Continuous
 62
7
370
25
100
AcDbLine
 10
5.920007591100001
 20
4.019797201699999
 30
0.0
 11
5.920007591100001
 21
3.2389106384999997
 31
0.0
  0
SPLINE
  5
4F
330
17
100
AcDbEntity
  8
0
  6
Continuous
 62
7
370
25
100
AcDbSpline
 70
8
 71
3
 72
15
 73
11
 74
0
 42
1e-09
 43
0.001
 40
0.0
 40
0.0
 40
0.0
 40
0.0
 40
0.1903008812880466
 40
0.2542314365168828
 40
0.3181619917457191
 40
0.4921591957196382
 40
0.6661563996935571
 40
0.7321225925218806
 40
0.7980887853502038
 40
1.0
 40
1.0
 40
1.0
 40
1.0
 10
9.146451369863271
 20
0.3722767142216554
 30
0.0
 10
9.242583006623583
 20
0.5382566494217542
 30
0.0
 10
9.324716146028704
 20
0.7799911226882728
 30
0.0
 10
9.318601201952816
 20
1.1079312136879622
 30
0.0
 10
9.11098907063773
 20
1.361007127935352
 30
0.0
 10
8.643068790554281
 20
1.3078878956155648
 30
0.0
 10
8.249213241668366
 20
1.1138869439663495
 30
0.0
 10
8.141413303076346
 20
0.8066675200587383
 30
0.0
 10
8.255076288064446
 20
0.474579915304588
 30
0.0
 10
8.51631112505356
 20
0.3333812147915012
 30
0.0
 10
8.690108459805446
 20
0.25
 30
0.0
  0
SPLINE
  5
50
330
17
100
AcDbEntity
  8
0
  6
Continuous
 62
7
370
25
100
AcDbSpline
 70
8
 71
3
 72
15
 73
11
 74
0
 42
1e-09
 43
0.001
 40
0.0
 40
0.0
 40
0.0
 40
0.0
 40
0.1903008812880466
 40
0.2542314365168828
 40
0.3181619917457191
 40
0.4921591957196382
 40
0.6661563996935571
 40
0.7321225925218806
 40
0.7980887853502038
 40
1.0
 40
1.0
 40
1.0
 40
1.0
 10
8.090567422299511
 20
6.682146983014363
 30
0.0
 10
7.978413846079146
 20
6.488503725280921
 30
0.0
 10
7.882591850106502
 20
6.20648017313664
 30
0.0
 10
7.889725951528369
 20
5.8238834003036715
 30
0.0
 10
8.1319401047293
 20
5.528628167015043
 30
0.0
 10
8.677847098159992
 20
5.590600604721459
 30
0.0
 10
9.137345238526894
 20
5.816935048312203
 30
0.0
 10
9.26311183355092
 20
6.175357709537749
 30
0.0
 10
9.130505017731474
 20
6.5627932484175915
 30
0.0
 10
8.825731041244175
 20
6.727525065682869
 30
0.0
 10
8.622967484033643
 20
6.824803149606296
 30
0.0
  0
LINE
  5
51
330
17
100
AcDbEntity
  8
0
  6
Continuous
 62
7
370
25
100
AcDbLine
 10
8.690108459804435
 20
0.25000000000166267
 30
0.0
 11
8.563461947119395
 21
0.7226512199504782
 31
0.0
  0
LINE
  5
52
330
17
100
AcDbEntity
  8
0
  6
Continuous
 62
7
370
25
100
AcDbLine
 10
9.019804857174513
 20
0.8449279341709541
 30
0.0
 11
9.146451369863488
 21
0.3722767142221386
 31
0.0
  0
LINE
  5
53
330
17
100
AcDbEntity
  8
0
  6
Continuous
 62
7
370
25
100
AcDbLine
 10
8.23832168709971
 20
6.1307205597418175
 30
0.0
 11
8.090567422300497
 21
6.682146983013467
 31
0.0
  0
LINE
  5
54
330
17
100
AcDbEntity
  8
0
  6
Continuous
 62
7
370
25
100
AcDbLine
 10
8.622967484032781
 20
6.824803149607959
 30
0.0
 11
8.77072174883593
 21
6.273376726332373
 31
0.0
  0
LINE
  5
55
330
17
100
AcDbEntity
  8
0
  6
Continuous
 62
7
370
25
100
AcDbLine
 10
8.875655750213882
 20
1.3202161580607168
 30
0.0
 11
8.875655750213882
 21
5.705216843513469
 31
0.0
  0
LINE
  5
56
330
17
100
AcDbEntity
  8
0
  6
Continuous
 62
7
370
25
100
AcDbLine
 10
8.44258488407215
 20
1.194038917749694
 30
0.0
 11
8.44258488407215
 21
5.579770567938667
 31
0.0
  0
ARC
  5
57
330
17
100
AcDbEntity
  8
0
  6
Continuous
 62
7
370
25
100
AcDbCircle
 10
8.846855225454041
 20
0.5776989267930048
 30
0.0
 40
0.3183126097044908
100
AcDbArc
 50
57.0892041846
 51
152.9107958154
  0
ARC
  5
58
330
17
100
AcDbEntity
  8
0
  6
Continuous
 62
7
370
25
100
AcDbCircle
 10
8.44009625744223
 20
6.442487735013472
 30
0.0
 40
0.3713647113219087
100
AcDbArc
 50
-122.91079581540005
 51
-27.089204184600025
  0
SPLINE
  5
59
330
17
100
AcDbEntity
  8
0
  6
Continuous
 62
7
370
25
100
AcDbSpline
 70
8
 71
3
 72
15
 73
11
 74
0
 42
1e-09
 43
0.001
 40
0.0
 40
0.0
 40
0.0
 40
0.0
 40
0.1903008812880466
 40
0.2542314365168828
 40
0.3181619917457191
 40
0.4921591957196382
 40
0.6661563996935571
 40
0.7321225925218806
 40
0.7980887853502038
 40
1.0
 40
1.0
 40
1.0
 40
1.0
 10
10.818608399926116
 20
0.3722767142216554
 30
0.0
 10
10.914740036686428
 20
0.5382566494217542
 30
0.0
 10
10.99687317609155
 20
0.7799911226882728
 30
0.0
 10
10.990758232015661
 20
1.1079312136879622
 30
0.0
 10
10.783146100700575
 20
1.361007127935352
 30
0.0
 10
10.315225820617126
 20
1.3078878956155648
 30
0.0
 10
9.921370271731211
 20
1.1138869439663495
 30
0.0
 10
9.813570333139191
 20
0.8066675200587383
 30
0.0
 10
9.927233318127291
 20
0.474579915304588
 30
0.0
 10
10.188468155116405
 20
0.3333812147915012
 30
0.0
 10
10.36226548986829
 20
0.25
 30
0.0
  0
SPLINE
  5
5A
330
17
100
AcDbEntity
  8
0
  6
Continuous
 62
7
370
25
100
AcDbSpline
 70
8
 71
3
 72
15
 73
11
 74
0
 42
1e-09
 43
0.001
 40
0.0
 40
0.0
 40
0.0
 40
0.0
 40
0.1903008812880466
 40
0.2542314365168828
 40
0.3181619917457191
 40
0.4921591957196382
 40
0.6661563996935571
 40
0.7321225925218806
 40
0.7980887853502038
 40
1.0
 40
1.0
 40
1.0
 40
1.0
 10
9.762724452362356
 20
6.682146983014363
 30
0.0
 10
9.650570876141991
 20
6.488503725280921
 30
0.0
 10
9.554748880169347
 20
6.20648017313664
 30
0.0
 10
9.561882981591214
 20
5.8238834003036715
 30
0.0
 10
9.804097134792144
 20
5.528628167015043
 30
0.0
 10
10.350004128222837
 20
5.590600604721459
 30
0.0
 10
10.809502268589739
 20
5.816935048312203
 30
0.0
 10
10.935268863613764
 20
6.175357709537749
 30
0.0
 10
10.80266204779432
 20
6.5627932484175915
 30
0.0
 10
10.49788807130702
 20
6.727525065682869
 30
0.0
 10
10.295124514096488
 20
6.824803149606296
 30
0.0
  0
LINE
  5
5B
330
17
100
AcDbEntity
  8
0
  6
Continuous
 62
7
370
25
100
AcDbLine
 10
10.36226548986728
 20
0.25000000000166267
 30
0.0
 11
10.23561897718224
 21
0.7226512199504782
 31
0.0
  0
LINE
  5
5C
330
17
100
AcDbEntity
  8
0
  6
Continuous
 62
7
370
25
100
AcDbLine
 10
10.691961887237358
 20
0.8449279341709541
 30
0.0
 11
10.818608399926333
 21
0.3722767142221386
 31
0.0
  0
LINE
  5
5D
330
17
100
AcDbEntity
  8
0
  6
Continuous
 62
7
370
25
100
AcDbLine
 10
9.910478717162555
 20
6.1307205597418175
 30
0.0
 11
9.762724452363342
 21
6.682146983013467
 31
0.0
  0
LINE
  5
5E
330
17
100
AcDbEntity
  8
0
  6
Continuous
 62
7
370
25
100
AcDbLine
 10
10.295124514095626
 20
6.824803149607959
 30
0.0
 11
10.442878778898775
 21
6.273376726332373
 31
0.0
  0
LINE
  5
5F
330
17
100
AcDbEntity
  8
0
  6
Continuous
 62
7
370
25
100
AcDbLine
 10
10.547812780276727
 20
1.3202161580607168
 30
0.0
 11
10.547812780276727
 21
5.705216843513469
 31
0.0
  0
LINE
  5
60
330
17
100
AcDbEntity
  8
0
  6
Continuous
 62
7
370
25
100
AcDbLine
 10
10.114741914134996
 20
1.194038917749694
 30
0.0
 11
10.114741914134996
 21
5.579770567938667
 31
0.0
  0
ARC
  5
61
330
17
100
AcDbEntity
  8
0
  6
Continuous
 62
7
370
25
100
AcDbCircle
 10
10.519012255516886
 20
0.5776989267930048
 30
0.0
 40
0.3183126097044908
100
AcDbArc
 50
57.0892041846
 51
152.9107958154
  0
ARC
  5
62
330
17
100
AcDbEntity
  8
0
  6
Continuous
 62
7
370
25
100
AcDbCircle
 10
10.112253287505075
 20
6.442487735013472
 30
0.0
 40
0.3713647113219087
100
AcDbArc
 50
-122.91079581540005
 51
-27.089204184600025
  0
SPLINE
  5
63
330
17
100
AcDbEntity
  8
0
  6
Continuous
 62
7
370
25
100
AcDbSpline
 70
8
 71
3
 72
15
 73
11
 74
0
 42
1e-09
 43
0.001
 40
0.0
 40
0.0
 40
0.0
 40
0.0
 40
0.1903008812880466
 40
0.2542314365168828
 40
0.3181619917457191
 40
0.4921591957196382
 40
0.6661563996935571
 40
0.7321225925218806
 40
0.7980887853502038
 40
1.0
 40
1.0
 40
1.0
 40
1.0
 10
12.82130300946801
 20
0.41303561896219065
 30
0.0
 10
12.949478525148423
 20
0.634342199228989
 30
0.0
 10
13.058989377688587
 20
0.9566548302509901
 30
0.0
 10
13.050836118920735
 20
1.3939082849172806
 30
0.0
 10
12.774019943833954
 20
1.7313428372471904
 30
0.0
 10
12.150126237056021
 20
1.6605171941540888
 30
0.0
 10
11.624985505208134
 20
1.4018492586217874
 30
0.0
 10
11.481252253752109
 20
0.9922233600782917
 30
0.0
 10
11.632802900402908
 20
0.5494398870727863
 30
0.0
 10
11.981116016388393
 20
0.3611749530553894
 30
0.0
 10
12.212845796057573
 20
0.2499999999999929
 30
0.0
  0
SPLINE
  5
64
330
17
100
AcDbEntity
  8
0
  6
Continuous
 62
7
370
25
100
AcDbSpline
 70
8
 71
3
 72
15
 73
11
 74
0
 42
1e-09
 43
0.001
 40
0.0
 40
0.0
 40
0.0
 40
0.0
 40
0.1903008812880466
 40
0.2542314365168828
 40
0.3181619917457191
 40
0.4921591957196382
 40
0.6661563996935571
 40
0.7321225925218806
 40
0.7980887853502038
 40
1.0
 40
1.0
 40
1.0
 40
1.0
 10
11.481142614483236
 20
8.344491190285687
 30
0.0
 10
11.344956129072791
 20
8.109352948752282
 30
0.0
 10
11.228600848248867
 20
7.766895778291392
 30
0.0
 10
11.237263685689705
 20
7.30231398270849
 30
0.0
 10
11.531380871719406
 20
6.9437897708579825
 30
0.0
 10
12.194267935170963
 20
7.019042016644384
 30
0.0
 10
12.752229962759344
 20
7.293876698147393
 30
0.0
 10
12.904946542431375
 20
7.7291042153497855
 30
0.0
 10
12.743923980364904
 20
8.199561655418186
 30
0.0
 10
12.373841294630328
 20
8.399593147811792
 30
0.0
 10
12.127628403731823
 20
8.517716535433088
 30
0.0
  0
LINE
  5
65
330
17
100
AcDbEntity
  8
0
  6
Continuous
 62
7
370
25
100
AcDbLine
 10
12.212845796057538
 20
0.2500000000008882
 30
0.0
 11
12.043983779140214
 21
0.88020162659938
 31
0.0
  0
LINE
  5
66
330
17
100
AcDbEntity
  8
0
  6
Continuous
 62
7
370
25
100
AcDbLine
 10
12.6524409925536
 20
1.043237245559986
 30
0.0
 11
12.821303009466986
 21
0.4130356189615796
 31
0.0
  0
LINE
  5
67
330
17
100
AcDbEntity
  8
0
  6
Continuous
 62
7
370
25
100
AcDbLine
 10
11.660558507455175
 20
7.674901962024485
 30
0.0
 11
11.481142614482733
 21
8.34449119028438
 31
0.0
  0
LINE
  5
68
330
17
100
AcDbEntity
  8
0
  6
Continuous
 62
7
370
25
100
AcDbLine
 10
12.127628403730766
 20
8.517716535433983
 30
0.0
 11
12.307044296703207
 21
7.848127307170181
 31
0.0
  0
LINE
  5
69
330
17
100
AcDbEntity
  8
0
  6
Continuous
 62
7
370
25
100
AcDbLine
 10
12.466803863057537
 20
1.6774521501425923
 30
0.0
 11
12.466803863057537
 21
7.174313221744988
 31
0.0
  0
LINE
  5
6A
330
17
100
AcDbEntity
  8
0
  6
Continuous
 62
7
370
25
100
AcDbLine
 10
11.876252681955176
 20
1.5052045116780803
 30
0.0
 11
11.876252681955176
 21
7.002544037918192
 31
0.0
  0
ARC
  5
6B
330
17
100
AcDbEntity
  8
0
  6
Continuous
 62
7
370
25
100
AcDbCircle
 10
12.421841483589034
 20
0.6869319023906897
 30
0.0
 40
0.4244168129393193
100
AcDbArc
 50
57.0892041846
 51
152.9107958154
  0
ARC
  5
6C
330
17
100
AcDbEntity
  8
0
  6
Continuous
 62
7
370
25
100
AcDbCircle
 10
11.905570485730767
 20
8.05347638914268
 30
0.0
 40
0.4509428637480259
100
AcDbArc
 50
-122.91079581540005
 51
-27.089204184600025
  0
SPLINE
  5
6D
330
17
100
AcDbEntity
  8
0
  6
Continuous
 62
7
370
25
100
AcDbSpline
 70
8
 71
3
 72
15
 73
11
 74
0
 42
1e-09
 43
0.001
 40
0.0
 40
0.0
 40
0.0
 40
0.0
 40
0.1903008812880466
 40
0.2542314365168828
 40
0.3181619917457191
 40
0.4921591957196382
 40
0.6661563996935571
 40
0.7321225925218806
 40
0.7980887853502038
 40
1.0
 40
1.0
 40
1.0
 40
1.0
 10
14.884110950652712
 20
0.41303561896219065
 30
0.0
 10
15.012286466333126
 20
0.634342199228989
 30
0.0
 10
15.121797318873288
 20
0.9566548302509901
 30
0.0
 10
15.113644060105438
 20
1.3939082849172806
 30
0.0
 10
14.836827885018657
 20
1.7313428372471904
 30
0.0
 10
14.212934178240722
 20
1.6605171941540888
 30
0.0
 10
13.687793446392838
 20
1.4018492586217874
 30
0.0
 10
13.544060194936812
 20
0.9922233600782917
 30
0.0
 10
13.695610841587609
 20
0.5494398870727863
 30
0.0
 10
14.043923957573096
 20
0.3611749530553894
 30
0.0
 10
14.275653737242276
 20
0.2499999999999929
 30
0.0
  0
SPLINE
  5
6E
330
17
100
AcDbEntity
  8
0
  6
Continuous
 62
7
370
25
100
AcDbSpline
 70
8
 71
3
 72
15
 73
11
 74
0
 42
1e-09
 43
0.001
 40
0.0
 40
0.0
 40
0.0
 40
0.0
 40
0.1903008812880466
 40
0.2542314365168828
 40
0.3181619917457191
 40
0.4921591957196382
 40
0.6661563996935571
 40
0.7321225925218806
 40
0.7980887853502038
 40
1.0
 40
1.0
 40
1.0
 40
1.0
 10
13.543950555667937
 20
8.344491190285687
 30
0.0
 10
13.407764070257494
 20
8.109352948752282
 30
0.0
 10
13.291408789433572
 20
7.766895778291392
 30
0.0
 10
13.30007162687441
 20
7.30231398270849
 30
0.0
 10
13.59418881290411
 20
6.9437897708579825
 30
0.0
 10
14.257075876355666
 20
7.019042016644384
 30
0.0
 10
14.815037903944047
 20
7.293876698147393
 30
0.0
 10
14.967754483616078
 20
7.7291042153497855
 30
0.0
 10
14.806731921549607
 20
8.199561655418186
 30
0.0
 10
14.43664923581503
 20
8.399593147811792
 30
0.0
 10
14.190436344916526
 20
8.517716535433088
 30
0.0
  0
LINE
  5
6F
330
17
100
AcDbEntity
  8
0
  6
Continuous
 62
7
370
25
100
AcDbLine
 10
14.27565373724224
 20
0.2500000000008882
 30
0.0
 11
14.106791720324917
 21
0.88020162659938
 31
0.0
  0
LINE
  5
70
330
17
100
AcDbEntity
  8
0
  6
Continuous
 62
7
370
25
100
AcDbLine
 10
14.715248933738303
 20
1.043237245559986
 30
0.0
 11
14.884110950651689
 21
0.4130356189615796
 31
0.0
  0
LINE
  5
71
330
17
100
AcDbEntity
  8
0
  6
Continuous
 62
7
370
25
100
AcDbLine
 10
13.723366448639878
 20
7.674901962024485
 30
0.0
 11
13.543950555667436
 21
8.34449119028438
 31
0.0
  0
LINE
  5
72
330
17
100
AcDbEntity
  8
0
  6
Continuous
 62
7
370
25
100
AcDbLine
 10
14.190436344915469
 20
8.517716535433983
 30
0.0
 11
14.36985223788791
 21
7.848127307170181
 31
0.0
  0
LINE
  5
73
330
17
100
AcDbEntity
  8
0
  6
Continuous
 62
7
370
25
100
AcDbLine
 10
14.52961180424224
 20
1.6774521501425923
 30
0.0
 11
14.52961180424224
 21
7.174313221744988
 31
0.0
  0
LINE
  5
74
330
17
100
AcDbEntity
  8
0
  6
Continuous
 62
7
370
25
100
AcDbLine
 10
13.939060623139877
 20
1.5052045116780803
 30
0.0
 11
13.939060623139877
 21
7.002544037918192
 31
0.0
  0
ARC
  5
75
330
17
100
AcDbEntity
  8
0
  6
Continuous
 62
7
370
25
100
AcDbCircle
 10
14.484649424773737
 20
0.6869319023906897
 30
0.0
 40
0.4244168129393193
100
AcDbArc
 50
57.0892041846
 51
152.9107958154
  0
ARC
  5
76
330
17
100
AcDbEntity
  8
0
  6
Continuous
 62
7
370
25
100
AcDbCircle
 10
13.968378426915468
 20
8.05347638914268
 30
0.0
 40
0.4509428637480259
100
AcDbArc
 50
-122.91079581540005
 51
-27.089204184600025
  0
SPLINE
  5
77
330
17
100
AcDbEntity
  8
0
  6
Continuous
 62
7
370
25
100
AcDbSpline
 70
8
 71
3
 72
15
 73
11
 74
0
 42
1e-09
 43
0.001
 40
0.0
 40
0.0
 40
0.0
 40
0.0
 40
0.1903008812880466
 40
0.2542314365168828
 40
0.3181619917457191
 40
0.4921591957196382
 40
0.6661563996935571
 40
0.7321225925218806
 40
0.7980887853502038
 40
1.0
 40
1.0
 40
1.0
 40
1.0
 10
16.946918891837413
 20
0.41303561896219065
 30
0.0
 10
17.075094407517827
 20
0.634342199228989
 30
0.0
 10
17.18460526005799
 20
0.9566548302509901
 30
0.0
 10
17.176452001290137
 20
1.3939082849172806
 30
0.0
 10
16.899635826203358
 20
1.7313428372471904
 30
0.0
 10
16.275742119425423
 20
1.6605171941540888
 30
0.0
 10
15.750601387577536
 20
1.4018492586217874
 30
0.0
 10
15.606868136121511
 20
0.9922233600782917
 30
0.0
 10
15.75841878277231
 20
0.5494398870727863
 30
0.0
 10
16.106731898757793
 20
0.3611749530553894
 30
0.0
 10
16.338461678426977
 20
0.2499999999999929
 30
0.0
  0
SPLINE
  5
78
330
17
100
AcDbEntity
  8
0
  6
Continuous
 62
7
370
25
100
AcDbSpline
 70
8
 71
3
 72
15
 73
11
 74
0
 42
1e-09
 43
0.001
 40
0.0
 40
0.0
 40
0.0
 40
0.0
 40
0.1903008812880466
 40
0.2542314365168828
 40
0.3181619917457191
 40
0.4921591957196382
 40
0.6661563996935571
 40
0.7321225925218806
 40
0.7980887853502038
 40
1.0
 40
1.0
 40
1.0
 40
1.0
 10
15.606758496852638
 20
8.344491190285687
 30
0.0
 10
15.470572011442194
 20
8.109352948752282
 30
0.0
 10
15.354216730618269
 20
7.766895778291392
 30
0.0
 10
15.362879568059107
 20
7.30231398270849
 30
0.0
 10
15.656996754088809
 20
6.9437897708579825
 30
0.0
 10
16.319883817540365
 20
7.019042016644384
 30
0.0
 10
16.877845845128746
 20
7.293876698147393
 30
0.0
 10
17.030562424800777
 20
7.7291042153497855
 30
0.0
 10
16.869539862734307
 20
8.199561655418186
 30
0.0
 10
16.49945717699973
 20
8.399593147811792
 30
0.0
 10
16.253244286101225
 20
8.517716535433088
 30
0.0
  0
LINE
  5
79
330
17
100
AcDbEntity
  8
0
  6
Continuous
 62
7
370
25
100
AcDbLine
 10
16.33846167842694
 20
0.2500000000008882
 30
0.0
 11
16.169599661509615
 21
0.88020162659938
 31
0.0
  0
LINE
  5
7A
330
17
100
AcDbEntity
  8
0
  6
Continuous
 62
7
370
25
100
AcDbLine
 10
16.778056874923003
 20
1.043237245559986
 30
0.0
 11
16.94691889183639
 21
0.4130356189615796
 31
0.0
  0
LINE
  5
7B
330
17
100
AcDbEntity
  8
0
  6
Continuous
 62
7
370
25
100
AcDbLine
 10
15.786174389824577
 20
7.674901962024485
 30
0.0
 11
15.606758496852136
 21
8.34449119028438
 31
0.0
  0
LINE
  5
7C
330
17
100
AcDbEntity
  8
0
  6
Continuous
 62
7
370
25
100
AcDbLine
 10
16.25324428610017
 20
8.517716535433983
 30
0.0
 11
16.43266017907261
 21
7.848127307170181
 31
0.0
  0
LINE
  5
7D
330
17
100
AcDbEntity
  8
0
  6
Continuous
 62
7
370
25
100
AcDbLine
 10
16.59241974542694
 20
1.6774521501425923
 30
0.0
 11
16.59241974542694
 21
7.174313221744988
 31
0.0
  0
LINE
  5
7E
330
17
100
AcDbEntity
  8
0
  6
Continuous
 62
7
370
25
100
AcDbLine
 10
16.001868564324578
 20
1.5052045116780803
 30
0.0
 11
16.001868564324578
 21
7.002544037918192
 31
0.0
  0
ARC
  5
7F
330
17
100
AcDbEntity
  8
0
  6
Continuous
 62
7
370
25
100
AcDbCircle
 10
16.547457365958437
 20
0.6869319023906897
 30
0.0
 40
0.4244168129393193
100
AcDbArc
 50
57.0892041846
 51
152.9107958154
  0
ARC
  5
80
330
17
100
AcDbEntity
  8
0
  6
Continuous
 62
7
370
25
100
AcDbCircle
 10
16.03118636810017
 20
8.05347638914268
 30
0.0
 40
0.4509428637480259
100
AcDbArc
 50
-122.91079581540005
 51
-27.089204184600025
  0
ENDSEC
  0
SECTION
  2
OBJECTS
  0
DICTIONARY
  5
A
330
0
100
AcDbDictionary
281
1
  3
ACAD_COLOR
350
B
  3
ACAD_GROUP
350
C
  3
ACAD_LAYOUT
350
D
  3
ACAD_MATERIAL
350
E
  3
ACAD_MLEADERSTYLE
350
F
  3
ACAD_MLINESTYLE
350
10
  3
ACAD_PLOTSETTINGS
350
11
  3
ACAD_PLOTSTYLENAME
350
12
  3
ACAD_SCALELIST
350
14
  3
ACAD_TABLESTYLE
350
15
  3
ACAD_VISUALSTYLE
350
16
  3
EZDXF_META
350
2D
  0
DICTIONARY
  5
B
330
A
100
AcDbDictionary
281
1
  0
DICTIONARY
  5
C
330
A
100
AcDbDictionary
281
1
  0
DICTIONARY
  5
D
330
A
100
AcDbDictionary
281
1
  3
Model
350
1A
  3
Layout1
350
1E
  0
DICTIONARY
  5
E
330
A
100
AcDbDictionary
281
1
  3
ByBlock
350
1F
  3
ByLayer
350
20
  3
Global
350
21
  0
DICTIONARY
  5
F
330
A
100
AcDbDictionary
281
1
  3
Standard
350
2C
  0
DICTIONARY
  5
10
330
A
100
AcDbDictionary
281
1
  3
Standard
350
22
  0
DICTIONARY
  5
11
330
A
100
AcDbDictionary
281
1
  0
ACDBDICTIONARYWDFLT
  5
12
330
A
100
AcDbDictionary
281
1
  3
Normal
350
13
100
AcDbDictionaryWithDefault
340
13
  0
ACDBPLACEHOLDER
  5
13
330
12
  0
DICTIONARY
  5
14
330
A
100
AcDbDictionary
281
1
  0
DICTIONARY
  5
15
330
A
100
AcDbDictionary
281
1
  0
DICTIONARY
  5
16
330
A
100
AcDbDictionary
281
1
  0
LAYOUT
  5
1A
330
D
100
AcDbPlotSettings
  1

  2
Adobe PDF
  4
A3
  6

 40
7.5
 41
20.0
 42
7.5
 43
20.0
 44
420.0
 45
297.0
 46
0.0
 47
0.0
 48
0.0
 49
0.0
140
0.0
141
0.0
142
1.0
143
1.0
 70
1024
 72
1
 73
1
 74
5
  7

 75
16
 76
0
 77
2
 78
300
147
1.0
148
0.0
149
0.0
100
AcDbLayout
  1
Model
 70
1
 71
0
 10
0.0
 20
0.0
 11
420.0
 21
297.0
 12
0.0
 22
0.0
 32
0.0
 14
1e+20
 24
1e+20
 34
1e+20
 15
-1e+20
 25
-1e+20
 35
-1e+20
146
0.0
 13
0.0
 23
0.0
 33
0.0
 16
1.0
 26
0.0
 36
0.0
 17
0.0
 27
1.0
 37
0.0
 76
1
330
17
  0
LAYOUT
  5
1E
330
D
100
AcDbPlotSettings
  1

  2
Adobe PDF
  4
A3
  6

 40
7.5
 41
20.0
 42
7.5
 43
20.0
 44
420.0
 45
297.0
 46
0.0
 47
0.0
 48
0.0
 49
0.0
140
0.0
141
0.0
142
1.0
143
1.0
 70
0
 72
1
 73
1
 74
5
  7

 75
16
 76
0
 77
2
 78
300
147
1.0
148
0.0
149
0.0
100
AcDbLayout
  1
Layout1
 70
1
 71
1
 10
0.0
 20
0.0
 11
420.0
 21
297.0
 12
0.0
 22
0.0
 32
0.0
 14
1e+20
 24
1e+20
 34
1e+20
 15
-1e+20
 25
-1e+20
 35
-1e+20
146
0.0
 13
0.0
 23
0.0
 33
0.0
 16
1.0
 26
0.0
 36
0.0
 17
0.0
 27
1.0
 37
0.0
 76
1
330
1B
  0
MATERIAL
  5
1F
102
{ACAD_REACTORS
330
E
102
}
330
E
100
AcDbMaterial
  1
ByBlock
  2

 70
0
 40
1.0
 71
1
 41
1.0
 91
-1023410177
 42
1.0
 72
1
  3

 73
1
 74
1
 75
1
 44
0.5
 73
0
 45
1.0
 46
1.0
 77
1
  4

 78
1
 79
1
170
1
 48
1.0
171
1
  6

172
1
173
1
174
1
140
1.0
141
1.0
175
1
  7

176
1
177
1
178
1
143
1.0
179
1
  8

270
1
271
1
272
1
145
1.0
146
1.0
273
1
  9

274
1
275
1
276
1
 42
1.0
 72
1
  3

 73
1
 74
1
 75
1
 94
63
  0
MATERIAL
  5
20
102
{ACAD_REACTORS
330
E
102
}
330
E
100
AcDbMaterial
  1
ByLayer
  2

 70
0
 40
1.0
 71
1
 41
1.0
 91
-1023410177
 42
1.0
 72
1
  3

 73
1
 74
1
 75
1
 44
0.5
 73
0
 45
1.0
 46
1.0
 77
1
  4

 78
1
 79
1
170
1
 48
1.0
171
1
  6

172
1
173
1
174
1
140
1.0
141
1.0
175
1
  7

176
1
177
1
178
1
143
1.0
179
1
  8

270
1
271
1
272
1
145
1.0
146
1.0
273
1
  9

274
1
275
1
276
1
 42
1.0
 72
1
  3

 73
1
 74
1
 75
1
 94
63
  0
MATERIAL
  5
21
102
{ACAD_REACTORS
330
E
102
}
330
E
100
AcDbMaterial
  1
Global
  2

 70
0
 40
1.0
 71
1
 41
1.0
 91
-1023410177
 42
1.0
 72
1
  3

 73
1
 74
1
 75
1
 44
0.5
 73
0
 45
1.0
 46
1.0
 77
1
  4

 78
1
 79
1
170
1
 48
1.0
171
1
  6

172
1
173
1
174
1
140
1.0
141
1.0
175
1
  7

176
1
177
1
178
1
143
1.0
179
1
  8

270
1
271
1
272
1
145
1.0
146
1.0
273
1
  9

274
1
275
1
276
1
 42
1.0
 72
1
  3

 73
1
 74
1
 75
1
 94
63
  0
MLINESTYLE
  5
22
102
{ACAD_REACTORS
330
10
102
}
330
10
100
AcDbMlineStyle
  2
Standard
 70
0
  3

 62
256
 51
90.0
 52
90.0
 71
2
 49
0.5
 62
256
  6
BYLAYER
 49
-0.5
 62
256
  6
BYLAYER
  0
MLEADERSTYLE
  5
2C
102
{ACAD_REACTORS
330
F
102
}
330
F
100
AcDbMLeaderStyle
179
2
170
2
171
1
172
0
 90
2
 40
0.0
 41
0.0
173
1
 91
-1056964608
 92
-2
290
1
 42
2.0
291
1
 43
8.0
  3
Standard
 44
4.0
300

342
29
174
1
175
1
176
0
178
1
 93
-1056964608
 45
4.0
292
0
297
0
 46
4.0
 94
-1056964608
 47
1.0
 49
1.0
140
1.0
294
1
141
0.0
177
0
142
1.0
295
0
296
0
143
3.75
271
0
272
9
273
9
  0
DICTIONARY
  5
2D
330
A
100
AcDbDictionary
280
1
281
1
  3
CREATED_BY_EZDXF
350
2E
  3
WRITTEN_BY_EZDXF
350
83
  0
DICTIONARYVAR
  5
2E
330
2D
100
DictionaryVariables
280
0
  1
0.17.1 @ 2021-12-19T23:45:15.429224+00:00
  0
DICTIONARYVAR
  5
83
330
2D
100
DictionaryVariables
280
0
  1
0.17.1 @ 2021-12-19T23:45:15.773035+00:00
  0
ENDSEC
  0
EOF
